<svg xmlns="http://www.w3.org/2000/svg" xmlns:xlink="http://www.w3.org/1999/xlink" xmlns:lucid="lucid" width="1912.1" height="1355.91"><g transform="translate(-186.96090906739198 105.47194425112923)" lucid:page-tab-id="0_0"><path d="M1664.62-57c0-3.33 2.68-6 6-6h382.33c3.32 0 6 2.67 6 6V81.1c0 3.3-2.68 6-6 6h-382.33c-3.32 0-6-2.7-6-6zM279.35 86.83c-13.97 0-25.3-10.77-25.3-24.05 0-10.62 6.85-19.58 17.48-22.86-.6-31.23 41.54-37.24 58.4-25.22 8.43-18.03 50.6-12.02 50.6 6 25.28-6 50.58 18.04 33.7 48.1 16.88 24.04 0 54.1-33.7 42.07-8.44 15.63-42.17 15.63-50.6 0-16.86 12.02-50.58 6-50.58-24.04z" stroke="#5e5e5e" stroke-width="3" fill="#fff"/><use xlink:href="#a" transform="matrix(1,0,0,1,266.0550897637395,14.676666666666677) translate(31.851851851851855 54.15277777777778)"/><path d="M206.96-79.47c0-3.32 2.7-6 6-6h281.7c3.3 0 6 2.68 6 6v44.4c0 3.3-2.7 6-6 6h-281.7c-3.3 0-6-2.7-6-6z" fill="none"/><use xlink:href="#b" transform="matrix(1,0,0,1,218.96090906739198,-73.47194425112923) translate(0 26.54123263888889)"/><use xlink:href="#c" transform="matrix(1,0,0,1,218.96090906739198,-73.47194425112923) translate(46.52994791666667 26.54123263888889)"/><use xlink:href="#d" transform="matrix(1,0,0,1,218.96090906739198,-73.47194425112923) translate(125.09765625000001 26.54123263888889)"/><path d="M471.97 49.23h6v6h-6z" fill="url(#e)"/><path d="M477.97 49.23h1057.5v268.8H477.98z" fill="url(#f)"/><path d="M1535.48 49.23h6v6h-6z" fill="url(#g)"/><path d="M471.97 55.23h1069.5v256.8H471.98z" fill="url(#h)"/><path d="M1535.48 312.03h6v6h-6z" fill="url(#i)"/><path d="M477.97 49.23h1057.5v268.8H477.98z" fill="url(#j)"/><path d="M471.97 312.03h6v6h-6z" fill="url(#k)"/><path d="M471.97 55.23h1069.5v256.8H471.98z" fill="url(#l)"/><path d="M477.97 55.23h1057.5v256.8H477.98z" stroke="#6f7681" fill="#fffdec"/><path d="M477.97 47.36V36.34h1.5v11.02h-1.5m8.18-8.62c3.95-.18 2.35 5.15 2.66 8.62h-1.4v-5.38c0-1.38-.37-2.18-1.74-2.13-3.2.1-1.96 4.53-2.18 7.5h-1.42l-.05-8.43h1.35c.04.44-.05 1.06.08 1.42.5-.98 1.3-1.56 2.72-1.6m18.44 4.5c-.05 2.88-1.8 4.3-4.63 4.3-2.7 0-4.45-1.42-4.45-4.18v-7.02H497c.35 3.95-1.48 9.95 2.97 9.95 4.53 0 2.84-5.92 3.15-9.96h1.47v6.9m6.4-4.5c3.95-.18 2.35 5.15 2.66 8.62h-1.43v-5.38c0-1.38-.35-2.18-1.73-2.13-3.2.1-1.95 4.53-2.18 7.5h-1.42l-.04-8.43h1.33c.03.44-.05 1.06.08 1.42.5-.98 1.3-1.56 2.7-1.6m4.77-1.65v-1.34h1.42v1.33h-1.42zm0 10.26v-8.44h1.42v8.44h-1.42m5.06-2.1c-.08 1.08.8 1.3 1.7 1v1.06c-1.47.44-3.1.22-3.1-1.74v-5.64h-1v-1.02h1.08l.4-1.92h.93v1.92h1.57v1.02h-1.56v5.33m9.8-6.35l-3.83 9.82c-.62 1.24-1.65 2.26-3.6 1.86v-1.06c1.73.26 2.35-.9 2.84-2.22l-3.32-8.4h1.5l2.54 6.93 2.4-6.93h1.47m12.7.04c-.22-2.13-5.47-2.4-5.5.1.6 3.32 7 .6 7.23 5.28.14 3.46-5.37 3.86-7.77 2.44-.76-.44-1.25-1.15-1.47-2.04l1.46-.3c.22 2.48 6.26 2.8 6.26-.06 0-3.46-6.9-.62-7.2-5.24-.22-3.65 6.45-3.74 7.96-1.5.22.3.35.7.5 1.1m5.23 1.1c-1.77 0-2.12 1.48-2.12 3.25s.4 3.33 2.13 3.33c1.08 0 1.83-.63 1.92-1.7l1.43.1c-.27 1.64-1.38 2.7-3.3 2.7-2.62 0-3.37-1.8-3.64-4.4-.43-4.13 4.5-5.8 6.55-2.84.17.3.22.62.3.97l-1.42.13c-.17-.93-.7-1.55-1.82-1.55m8.2-1.1c2.8 0 3.8 1.85 3.72 4.7h-6c0 1.78.63 2.98 2.36 3.02 1.15.05 1.9-.53 2.18-1.3l1.24.37c-.5 1.24-1.64 2-3.42 2-2.58 0-3.9-1.65-3.87-4.45.06-2.72 1.17-4.36 3.8-4.36zm2.3 3.6c.27-2.68-3.38-3.43-4.3-1.26-.14.3-.28.75-.28 1.24h4.58m7.33-3.6c3.96-.18 2.36 5.15 2.67 8.62h-1.42v-5.38c0-1.38-.36-2.18-1.73-2.13-3.2.1-1.96 4.53-2.18 7.5h-1.42l-.05-8.43h1.33c.05.44-.04 1.06.1 1.42.48-.98 1.28-1.56 2.7-1.6m8.14 0c2.8 0 3.82 1.86 3.73 4.7h-6c0 1.8.62 3 2.36 3.03 1.15.05 1.9-.53 2.17-1.3l1.25.37c-.5 1.24-1.65 2-3.42 2-2.58 0-3.9-1.65-3.87-4.45.03-2.72 1.15-4.36 3.77-4.36zm2.3 3.6c.28-2.67-3.37-3.42-4.3-1.25-.14.3-.27.75-.27 1.24h4.58" fill="#282c33"/><path d="M513.1 101.57c0-3.3 2.7-6 6-6h214c3.32 0 6 2.7 6 6v169.28c0 3.3-2.68 6-6 6h-214c-3.3 0-6-2.7-6-6z" stroke="#5e5e5e" stroke-width="3" fill="#58c2bf"/><use xlink:href="#m" transform="matrix(1,0,0,1,525.106771704219,107.57126516963876) translate(20.845679012345684 17.77777777777778)"/><path d="M530.1 200.45c0-3.3 2.7-6 6-6h180c3.32 0 6 2.7 6 6v50.1c0 3.32-2.68 6-6 6h-180c-3.3 0-6-2.68-6-6z" stroke="#5e5e5e" stroke-width="3" fill="#b8decd"/><use xlink:href="#n" transform="matrix(1,0,0,1,542.106771704219,206.4502765109766) translate(12.487654320987659 17.77777777777778)"/><path d="M418.15 105.07l3.2 2.5 4.02 3.5 4.16 4 4.44 4.8 5.08 6.07 7.15 9.6 18.1 25.5 3.88 4.66 3.2 3.43 2.82 2.73 2.6 2.27 2.47 1.93 2.4 1.67 2.35 1.46 2.34 1.28 2.36 1.14 2.4 1 2.27.8" stroke="#5e5e5e" stroke-width="2" fill="none"/><path d="M418.8 104.3l-1.24 1.58-.8-.62 1.2-1.6z" fill="#5e5e5e"/><path d="M508.4 185.72l-14.8 2.44L495 179z" stroke="#5e5e5e" stroke-width="2" fill="#5e5e5e"/><path d="M742.1 188.86h388" stroke="#5e5e5e" stroke-width="3" fill="none"/><path d="M742.15 190.36h-1.54v-3h1.55z" fill="#5e5e5e"/><path d="M1145.88 188.86l-14.27 4.63v-9.28z" stroke="#5e5e5e" stroke-width="3" fill="#5e5e5e"/><path d="M279 857.05c-13.97 0-25.3-10.76-25.3-24.04 0-10.6 6.85-19.58 17.48-22.86-.62-31.23 41.54-37.24 58.4-25.22 8.43-18.03 50.6-12.02 50.6 6 25.28-6 50.57 18.05 33.7 48.1 16.87 24.04 0 54.1-33.7 42.07-8.44 15.62-42.17 15.62-50.6 0-16.86 12.02-50.6 6-50.6-24.05z" stroke="#5e5e5e" stroke-width="3" fill="#fff"/><use xlink:href="#a" transform="matrix(1,0,0,1,265.70161856512976,784.9007752830507) translate(31.851851851851855 54.15277777777778)"/><path d="M1694.3-27.12c0-3.3 2.7-6 6-6h28.43c3.3 0 6 2.7 6 6V1.3c0 3.3-2.7 6-6 6h-28.42c-3.3 0-6-2.7-6-6z" stroke="#5e5e5e" stroke-width="3" fill="#b8decd"/><path d="M1782-32.25c0-3.3 2.68-6 6-6h188.3c3.32 0 6 2.7 6 6V6.43c0 3.3-2.68 6-6 6H1788c-3.32 0-6-2.7-6-6z" fill="none"/><use xlink:href="#o" transform="matrix(1,0,0,1,1793.9978532365662,-26.24644773579547) translate(0 17.944444444444443)"/><path d="M1694.3 23.56c0-3.3 2.7-6 6-6h28.43c3.3 0 6 2.7 6 6v28.42c0 3.3-2.7 6-6 6h-28.42c-3.3 0-6-2.7-6-6z" stroke="#5e5e5e" stroke-width="3" fill="#f8ad96"/><path d="M1782 18.43c0-3.3 2.68-6 6-6h237.2c3.3 0 6 2.7 6 6V57.1c0 3.32-2.7 6-6 6H1788c-3.32 0-6-2.68-6-6z" fill="none"/><use xlink:href="#p" transform="matrix(1,0,0,1,1793.9978532365667,24.43021893087121) translate(0 17.944444444444443)"/><path d="M790.93 93.1c0-3.3 2.68-6 6-6h280.7c3.3 0 6 2.7 6 6v35.73c0 3.3-2.7 6-6 6h-280.7c-3.32 0-6-2.7-6-6z" fill="none"/><use xlink:href="#q" transform="matrix(1,0,0,1,802.9259235142293,99.09923581269322) translate(0 18.87934027777778)"/><use xlink:href="#r" transform="matrix(1,0,0,1,802.9259235142293,99.09923581269322) translate(90.24522569444443 18.87934027777778)"/><use xlink:href="#s" transform="matrix(1,0,0,1,802.9259235142293,99.09923581269322) translate(126.80121527777776 18.87934027777778)"/><use xlink:href="#t" transform="matrix(1,0,0,1,802.9259235142293,99.09923581269322) translate(182.63888888888886 18.87934027777778)"/><path d="M457.87 761.8h6v6h-6z" fill="url(#u)"/><path d="M463.87 761.8h1615.2v314.68H463.86z" fill="url(#v)"/><path d="M2079.06 761.8h6v6h-6z" fill="url(#w)"/><path d="M457.87 767.8h1627.2v302.68H457.86z" fill="url(#x)"/><path d="M2079.06 1070.48h6v6h-6z" fill="url(#y)"/><path d="M463.87 761.8h1615.2v314.68H463.86z" fill="url(#z)"/><path d="M457.87 1070.48h6v6h-6z" fill="url(#A)"/><path d="M457.87 767.8h1627.2v302.68H457.86z" fill="url(#B)"/><path d="M463.87 767.8h1615.2v302.68H463.86z" stroke="#6f7681" fill="#fffdec"/><path d="M463.87 759.93V748.9h1.5v11.03h-1.5m8.18-8.62c3.96-.17 2.36 5.17 2.67 8.63h-1.42v-5.37c0-1.38-.36-2.18-1.74-2.14-3.2.1-1.95 4.54-2.18 7.5h-1.42l-.04-8.43h1.33c.05.43-.04 1.06.1 1.4.48-.97 1.28-1.54 2.7-1.6m18.45 4.5c-.05 2.9-1.78 4.3-4.63 4.3-2.7 0-4.44-1.4-4.44-4.17v-7.02h1.47c.35 3.97-1.47 9.97 2.97 9.97 4.54 0 2.85-5.9 3.16-9.96h1.47v6.9m6.4-4.5c3.95-.17 2.35 5.17 2.66 8.63h-1.42v-5.37c0-1.38-.36-2.18-1.73-2.14-3.2.1-1.95 4.54-2.17 7.5h-1.42l-.04-8.43h1.34c.04.43-.05 1.06.08 1.4.5-.97 1.3-1.54 2.72-1.6m4.75-1.63v-1.34h1.42v1.34h-1.42zm0 10.26v-8.44h1.42v8.43h-1.42m5.07-2.08c-.1 1.06.8 1.28 1.7.97v1.07c-1.48.43-3.12.2-3.12-1.74v-5.65h-.98v-1h1.06l.4-1.92h.94v1.9h1.55v1.03h-1.55v5.35m9.78-6.36l-3.83 9.8c-.62 1.26-1.64 2.28-3.6 1.88v-1.07c1.74.28 2.36-.88 2.85-2.2l-3.34-8.4h1.52l2.53 6.92 2.4-6.93h1.47m12.7.03c-.22-2.13-5.46-2.4-5.5.1.62 3.33 7.02.62 7.24 5.28.13 3.48-5.38 3.88-7.78 2.46-.75-.45-1.24-1.16-1.46-2.05l1.46-.3c.22 2.5 6.27 2.8 6.27-.04 0-3.47-6.9-.63-7.2-5.25-.22-3.63 6.44-3.72 7.95-1.5.23.3.36.7.5 1.1m5.24 1.12c-1.78 0-2.14 1.47-2.14 3.25s.4 3.33 2.14 3.33c1.06 0 1.82-.62 1.9-1.7l1.43.1c-.27 1.65-1.38 2.7-3.3 2.7-2.6 0-3.37-1.8-3.63-4.4-.45-4.12 4.5-5.8 6.53-2.83.18.3.22.62.3.98l-1.4.13c-.2-.93-.72-1.56-1.83-1.56m8.18-1.1c2.8 0 3.82 1.86 3.73 4.7h-6c0 1.78.62 2.98 2.35 3.03 1.16.04 1.92-.54 2.18-1.3l1.25.36c-.48 1.26-1.64 2-3.42 2-2.57 0-3.9-1.63-3.86-4.43.04-2.7 1.15-4.36 3.78-4.36zm2.3 3.6c.27-2.67-3.37-3.43-4.3-1.25-.14.3-.27.75-.27 1.24h4.58m7.34-3.6c3.96-.17 2.36 5.17 2.67 8.63H555v-5.37c0-1.38-.35-2.18-1.73-2.14-3.2.1-1.95 4.54-2.18 7.5h-1.42l-.04-8.43h1.34c.04.43-.04 1.06.1 1.4.48-.97 1.28-1.54 2.7-1.6m8.13 0c2.8 0 3.83 1.88 3.74 4.72h-6c0 1.78.63 2.98 2.36 3.03 1.16.04 1.9-.54 2.18-1.3l1.24.36c-.48 1.26-1.64 2-3.42 2-2.58 0-3.9-1.63-3.86-4.43.04-2.7 1.15-4.36 3.77-4.36zm2.3 3.6c.28-2.65-3.36-3.4-4.3-1.23-.13.3-.26.75-.26 1.24h4.58" fill="#282c33"/><path d="M231.22 475.46c0-3.3 2.7-6 6-6h385.54c3.32 0 6 2.7 6 6v44.4c0 3.32-2.68 6-6 6H237.22c-3.3 0-6-2.68-6-6z" fill="none"/><use xlink:href="#b" transform="matrix(1,0,0,1,243.2215966255876,481.46494334839247) translate(0 26.54123263888889)"/><use xlink:href="#C" transform="matrix(1,0,0,1,243.2215966255876,481.46494334839247) translate(46.52994791666667 26.54123263888889)"/><use xlink:href="#D" transform="matrix(1,0,0,1,243.2215966255876,481.46494334839247) translate(182.23090277777783 26.54123263888889)"/><path d="M507.15 887.97c0-3.3 2.68-6 6-6h214c3.3 0 6 2.7 6 6v108.2c0 3.33-2.7 6-6 6h-214c-3.32 0-6-2.67-6-6z" stroke="#5e5e5e" stroke-width="3" fill="#58c2bf"/><use xlink:href="#m" transform="matrix(1,0,0,1,519.1468780562392,893.9691648606902) translate(20.845679012345684 17.77777777777778)"/><path d="M524.15 940.47c0-3.3 2.68-6 6-6h180c3.3 0 6 2.7 6 6v42.2c0 3.32-2.7 6-6 6h-180c-3.32 0-6-2.68-6-6z" stroke="#5e5e5e" stroke-width="3" fill="#b8decd"/><use xlink:href="#n" transform="matrix(1,0,0,1,536.1468780562392,946.4691648606904) translate(12.487654320987659 17.77777777777778)"/><path d="M420.76 828.43l7.77 1.95 7.84 2.36 7.1 2.52 6.48 2.64 5.97 2.77 5.53 2.9 5.17 3 4.86 3.16 4.6 3.3 4.35 3.45 4.16 3.63 3.98 3.83 3.84 4.04 3.7 4.3 3.62 4.6 3.5 4.92 3.44 5.32 3.35 5.8 3.3 6.36 3.22 7.04 3.17 7.85.83 2.37" stroke="#5e5e5e" stroke-width="2" fill="none"/><path d="M421.03 827.46l-.5 1.94-.96-.24.44-1.95z" fill="#5e5e5e"/><path d="M525.13 931.1l-8.7-12.22 8.84-2.8z" stroke="#5e5e5e" stroke-width="2" fill="#5e5e5e"/><path d="M522.14 944.35l-28.07-47.83-5.67-8.46-3.55-4.77-2.7-3.27-2.26-2.48-2.03-2-1.9-1.7-1.86-1.52-1.87-1.4-2-1.3-2.2-1.3-2.6-1.38-3.34-1.56-5.3-2.16-18.43-6.54" stroke="#5e5e5e" stroke-width="2" fill="none"/><path d="M522.65 947.2l-1.4-2.37 1.4-.8z" fill="#5e5e5e"/><path d="M423.98 851.6l15 .4-3.1 8.73z" stroke="#5e5e5e" stroke-width="2" fill="#5e5e5e"/><path d="M923.2 887.97c0-3.3 2.7-6 6-6h330.74c3.32 0 6 2.7 6 6v138.57c0 3.32-2.68 6-6 6H929.2c-3.3 0-6-2.68-6-6z" stroke="#5e5e5e" stroke-width="3" fill="#fa7811"/><use xlink:href="#E" transform="matrix(1,0,0,1,935.2148173732852,893.9691648606902) translate(48.20370370370374 17.77777777777778)"/><path d="M937.1 940.6c0-3.3 2.67-6 6-6h297.1c3.3 0 6 2.7 6 6v72.7c0 3.32-2.7 6-6 6H943.1c-3.33 0-6-2.68-6-6z" stroke="#5e5e5e" stroke-width="3" fill="#f8ad96"/><use xlink:href="#F" transform="matrix(1,0,0,1,949.0870488277316,946.6109150814914) translate(5.808641975308689 36.84027777777778)"/><path d="M1286.06 937.98c0-3.3 2.7-6 6-6h190.7c3.33 0 6 2.7 6 6v38.14c0 3.3-2.67 6-6 6h-190.7c-3.3 0-6-2.7-6-6z" fill="none"/><use xlink:href="#G" transform="matrix(1,0,0,1,1298.06270242235,943.9815017720765) translate(3.1773003472222285 20.67230902777778)"/><use xlink:href="#H" transform="matrix(1,0,0,1,1298.06270242235,943.9815017720765) translate(80.98763020833333 20.67230902777778)"/><path d="M719.15 961.6l36.4.7 26.38 1.64L807 966.6l64.3 8 26.37 1.63 17.3.33" stroke="#5e5e5e" stroke-width="3" fill="none"/><path d="M719.22 960.1l-.06 3-1.5-.02v-3z" fill="#5e5e5e"/><path d="M930.73 976.87l-14.35 4.36.18-9.27z" stroke="#5e5e5e" stroke-width="3" fill="#5e5e5e"/><path d="M527.3 153.3c0-3.3 2.68-6 6-6h85.4c3.3 0 6 2.7 6 6v35.15c0 3.3-2.7 6-6 6h-85.4c-3.32 0-6-2.7-6-6z" fill="none"/><use xlink:href="#I" transform="matrix(1,0,0,1,539.2922406212381,159.30659595542105) translate(0 19.17230902777778)"/><path d="M895 146.67c0-3.3 2.7-6 6-6h80.55c3.3 0 6 2.7 6 6v35.14c0 3.33-2.7 6-6 6H901c-3.3 0-6-2.67-6-6z" fill="none"/><use xlink:href="#J" transform="matrix(1,0,0,1,907.0027010716079,152.66913383265864) translate(0 19.17230902777778)"/><path d="M1152.23 106.86c0-3.3 2.7-6 6-6h330.73c3.3 0 6 2.7 6 6v164c0 3.3-2.7 6-6 6h-330.73c-3.3 0-6-2.7-6-6z" stroke="#5e5e5e" stroke-width="3" fill="#fa7811"/><use xlink:href="#E" transform="matrix(1,0,0,1,1164.2317907595402,112.86340720669955) translate(48.20370370370374 17.77777777777778)"/><path d="M1168.82 200.45c0-3.3 2.7-6 6-6h299.9c3.3 0 6 2.7 6 6v43.27c0 3.3-2.7 6-6 6h-299.9c-3.3 0-6-2.7-6-6z" stroke="#5e5e5e" stroke-width="3" fill="#f8ad96"/><use xlink:href="#F" transform="matrix(1,0,0,1,1180.82110640946,206.4502765109766) translate(6.808641975308689 17.77777777777778)"/><path d="M1734.3 23.56c0-3.3 2.7-6 6-6h28.43c3.3 0 6 2.7 6 6v28.42c0 3.3-2.7 6-6 6h-28.42c-3.3 0-6-2.7-6-6z" stroke="#5e5e5e" stroke-width="3" fill="#fa7811"/><path d="M1734.3-27.12c0-3.3 2.7-6 6-6h28.43c3.3 0 6 2.7 6 6V1.3c0 3.3-2.7 6-6 6h-28.42c-3.3 0-6-2.7-6-6z" stroke="#5e5e5e" stroke-width="3" fill="#58c2bf"/><path d="M762.22 895.47c0-3.3 2.7-6 6-6H897.1c3.3 0 6 2.7 6 6v58.28c0 3.3-2.7 6-6 6H768.22c-3.3 0-6-2.7-6-6z" fill="none"/><use xlink:href="#K" transform="matrix(1,0,0,1,774.2234218407857,901.4688791150013) translate(37.433376736111114 19.10546875)"/><use xlink:href="#L" transform="matrix(1,0,0,1,774.2234218407857,901.4688791150013) translate(0.06901041666667851 42.23914930555556)"/><path d="M1168.82 153.3c0-3.3 2.7-6 6-6h85.4c3.32 0 6 2.7 6 6v35.15c0 3.3-2.68 6-6 6h-85.4c-3.3 0-6-2.7-6-6z" fill="none"/><use xlink:href="#I" transform="matrix(1,0,0,1,1180.82110640946,159.30659595542107) translate(0 19.17230902777778)"/><path d="M1421.9 615.9c0-3.33 2.58-6.72 5.78-7.6l85.3-23.2c3.2-.87 8.48-1.57 11.8-1.57h128.32c3.3 0 8.6.7 11.8 1.57l85.3 23.2c3.2.88 5.8 4.27 5.8 7.6v26.16c0 3.3-2.6 6.7-5.8 7.57l-85.3 23.2c-3.2.88-8.5 1.6-11.8 1.6h-128.32c-3.32 0-8.6-.72-11.8-1.6l-85.3-23.2c-3.2-.87-5.8-4.26-5.8-7.57z" stroke="#5e5e5e" stroke-width="3" fill="#f8ad96"/><use xlink:href="#M" transform="matrix(1,0,0,1,1433.8860747210858,595.527886543604) translate(7.814814814814866 38.71527777777778)"/><path d="M812.2 193.8c0-3.3 2.7-6 6-6h251.5c3.3 0 6 2.7 6 6v35.16c0 3.3-2.7 6-6 6H818.2c-3.3 0-6-2.7-6-6z" fill="none"/><use xlink:href="#N" transform="matrix(1,0,0,1,824.2149860142292,199.8128143882142) translate(0.26258680555557135 19.17230902777778)"/><use xlink:href="#O" transform="matrix(1,0,0,1,824.2149860142292,199.8128143882142) translate(115.6814236111111 19.17230902777778)"/><use xlink:href="#P" transform="matrix(1,0,0,1,824.2149860142292,199.8128143882142) translate(142.38498263888889 19.17230902777778)"/><path d="M1147 131.4h-14.28m-14.3 0h-28.56m-14.3 0H1047m-14.3 0h-28.57m-14.3 0h-28.57m-14.3 0H918.4m-14.3 0h-28.57m-14.3 0h-28.56m-14.3 0H789.8m-14.28 0h-14.3M1146.97 131.4h1.54" stroke="#5e5e5e" stroke-width="3" fill="none"/><path d="M745.46 131.4l14.27-4.65v9.27z" stroke="#5e5e5e" stroke-width="3" fill="#5e5e5e"/><path d="M1165.8 237.44l-421.57.55" stroke="#5e5e5e" stroke-width="3" fill="none"/><path d="M1167.32 238.94h-1.54v-3h1.54z" fill="#5e5e5e"/><path d="M728.46 238l14.26-4.64v9.27z" stroke="#5e5e5e" stroke-width="3" fill="#5e5e5e"/><path d="M1503.98 887.55c0-3.3 2.7-6 6-6h216.6c3.3 0 6 2.7 6 6v139c0 3.3-2.7 6-6 6h-216.6c-3.3 0-6-2.7-6-6z" stroke="#5e5e5e" stroke-width="3" fill="#fa7811"/><use xlink:href="#Q" transform="matrix(1,0,0,1,1515.9791124905123,893.5548094263729) translate(32.46913580246914 17.77777777777778)"/><path d="M1608.63 677.42v182" stroke="#5e5e5e" stroke-width="3" fill="none"/><path d="M1610.13 677.46h-3v-1.54h3z" fill="#5e5e5e"/><path d="M1608.63 875.2l-4.63-14.27h9.27z" stroke="#5e5e5e" stroke-width="3" fill="#5e5e5e"/><path d="M1641.68 878.55v-15.17m0-15.16v-30.34m0-15.17V772.4m0-15.17v-30.33m0-15.17v-15.16" stroke="#5e5e5e" stroke-width="3" fill="none"/><path d="M1643.18 880.05h-3v-1.54h3z" fill="#5e5e5e"/><path d="M1641.68 680.77l4.63 14.27h-9.26z" stroke="#5e5e5e" stroke-width="3" fill="#5e5e5e"/><path d="M1507.3 719.98c0-3.3 2.7-6 6-6h61.45c3.32 0 6 2.7 6 6v35.14c0 3.32-2.68 6-6 6h-61.44c-3.3 0-6-2.68-6-6z" fill="none"/><use xlink:href="#R" transform="matrix(1,0,0,1,1519.3085805613941,725.9803989616399) translate(0 19.17230902777778)"/><path d="M1664.4 704.75c0-3.3 2.7-6 6-6h335.56c3.3 0 6 2.7 6 6v35.73c0 3.32-2.7 6-6 6H1670.4c-3.3 0-6-2.68-6-6z" fill="none"/><use xlink:href="#S" transform="matrix(1,0,0,1,1676.3999703883637,710.7520286164535) translate(0 18.87934027777778)"/><use xlink:href="#T" transform="matrix(1,0,0,1,1676.3999703883637,710.7520286164535) translate(114.7026909722222 18.87934027777778)"/><use xlink:href="#U" transform="matrix(1,0,0,1,1676.3999703883637,710.7520286164535) translate(217.61067708333331 18.87934027777778)"/><use xlink:href="#V" transform="matrix(1,0,0,1,1676.3999703883637,710.7520286164535) translate(244.7808159722222 18.87934027777778)"/><path d="M1517.16 921.36c0-3.32 2.7-6 6-6h142.95c3.32 0 6 2.68 6 6v35.14c0 3.3-2.68 6-6 6h-142.94c-3.3 0-6-2.7-6-6z" fill="none"/><use xlink:href="#W" transform="matrix(1,0,0,1,1529.162863600106,927.3565439623823) translate(0 19.17230902777778)"/><use xlink:href="#X" transform="matrix(1,0,0,1,1529.162863600106,927.3565439623823) translate(39.0625 19.17230902777778)"/><use xlink:href="#Y" transform="matrix(1,0,0,1,1529.162863600106,927.3565439623823) translate(68.42447916666667 19.17230902777778)"/><path d="M1249.2 945.7l7.08-.16 8.06-.5 7.6-.8 7.23-1.07 6.88-1.3 6.58-1.55 6.34-1.77 6.1-2 5.94-2.2 5.78-2.42 5.64-2.65 5.53-2.9 5.45-3.14 5.38-3.4 5.34-3.73 5.32-4.02 5.32-4.4 5.33-4.8 5.37-5.28 5.44-5.8 5.55-6.42 5.66-7.14 5.83-8 6-9.07 6.28-10.37 6.62-12.02 7.04-14.2 7.66-17.26 8.62-21.82 10.4-29.98 16.34-54.78 5.15-18.84" stroke="#5e5e5e" stroke-width="3" fill="none"/><path d="M1249.26 947.2l-1.57.02v-3l1.5-.03z" fill="#5e5e5e"/><path d="M1466.2 666.7l.7 14.98-8.94-2.44z" stroke="#5e5e5e" stroke-width="3" fill="#5e5e5e"/><path d="M1534.93 971.9c0-3.3 2.7-6 6-6h170c3.3 0 6 2.7 6 6v41.4c0 3.32-2.7 6-6 6h-170c-3.3 0-6-2.68-6-6z" stroke="#5e5e5e" stroke-width="3" fill="#f8ad96"/><use xlink:href="#Z" transform="matrix(1,0,0,1,1546.92928839618,977.901199702605) translate(45.94444444444445 19.65277777777778)"/><path d="M1531.93 977.36H1268.3" stroke="#5e5e5e" stroke-width="3" fill="none"/><path d="M1533.43 978.86h-1.54v-3h1.53z" fill="#5e5e5e"/><path d="M1252.54 977.36l14.27-4.64V982z" stroke="#5e5e5e" stroke-width="3" fill="#5e5e5e"/><path d="M1737.45 932.67c0-3.32 2.7-6 6-6h120.37c3.3 0 6 2.68 6 6v35.14c0 3.33-2.7 6-6 6h-120.37c-3.3 0-6-2.67-6-6z" fill="none"/><use xlink:href="#aa" transform="matrix(1,0,0,1,1749.4544187251104,938.6680575827669) translate(0 19.17230902777778)"/><use xlink:href="#ab" transform="matrix(1,0,0,1,1749.4544187251104,938.6680575827669) translate(45.84418402777778 19.17230902777778)"/><path d="M1858.15 965.75c0-3.32 2.7-6 6-6h169c3.32 0 6 2.68 6 6v47.8c0 3.3-2.68 6-6 6h-169c-3.3 0-6-2.7-6-6z" stroke="#5e5e5e" stroke-width="3" fill="#fa7811"/><use xlink:href="#ac" transform="matrix(1,0,0,1,1870.1546279961608,971.7462402261125) translate(11.253086419753075 22.27777777777778)"/><path d="M1861.2 1176.64c0-3.32 2.68-6 6-6h169c3.3 0 6 2.68 6 6v47.8c0 3.3-2.7 6-6 6h-169c-3.32 0-6-2.7-6-6z" stroke="#5e5e5e" stroke-width="3" fill="#b8decd"/><use xlink:href="#ad" transform="matrix(1,0,0,1,1873.195821351293,1182.6370834026438) translate(19.246913580246904 22.27777777777778)"/><path d="M1864.04 1079.47c0-3.3 2.7-6 6-6h169c3.32 0 6 2.7 6 6v47.8c0 3.3-2.68 6-6 6h-169c-3.3 0-6-2.7-6-6z" stroke="#5e5e5e" stroke-width="3" fill="#d5d2e2"/><g><use xlink:href="#ae" transform="matrix(1,0,0,1,1876.0439860572042,1085.4702787734332) translate(28.475308641975303 22.27777777777778)"/></g><path d="M1719.93 992.64l1.37.02 2.73.18 2.62.27 2.52.38 2.43.47 2.25.52m13.07 5.1l.53.3 2.24 1.28 2.26 1.44 2.33 1.6 2.38 1.83 2.5 2.06 2.6 2.35 2.8 2.74 3.05 3.24.85.98m8.73 11.02l3.36 4.62 12.57 18.58m7.9 11.65l4.83 7.14 4.06 5.13 3.42 3.97 3.05 3.25 2.32 2.27m11 8.76l1.56 1 2.24 1.3 2.22 1.15 2.22 1.04 2.22.94 2.1.78" stroke="#5e5e5e" stroke-width="3" fill="none"/><path d="M1720 991.14l-.06 3-1.5-.03v-3z" fill="#5e5e5e"/><path d="M1857.75 1102.58l-14.82 2.26 1.5-9.14z" stroke="#5e5e5e" stroke-width="3" fill="#5e5e5e"/><path d="M1719.93 992.64l1.44.1 1.42.14 1.4.2 1.37.27 1.37.32 1.36.38 1.36.44 1.37.5 1.37.58 1.4.65 1.4.73.2.12m12.5 10.25l.18.2 1.97 2.28 2.12 2.7 2.3 3.15 2.5 3.78 2.8 4.62 3.16 5.76 2.38 4.8m6.63 14.84l5.7 14.5 5.7 15.9m5.5 15.28l10.96 30.57m5.48 15.27l1.64 4.6 4.57 10.3 3.7 7.46 3.16 5.77.73 1.2m9.24 13.34l1.7 2 1.87 1.97 1.78 1.74 1.68 1.52 1.6 1.33 1.57 1.17 1.5 1.05.24.15" stroke="#5e5e5e" stroke-width="3" fill="none"/><path d="M1720 991.14l-.06 3-1.5-.03v-3z" fill="#5e5e5e"/><path d="M1855.06 1199.1l-15 .25 2.72-8.86z" stroke="#5e5e5e" stroke-width="3" fill="#5e5e5e"/><path d="M1719.93 989.65h12.9m12.9 0h25.8m12.9 0h25.8m12.9 0h12.9" stroke="#5e5e5e" stroke-width="3" fill="none"/><path d="M1719.97 991.15h-1.54v-3h1.54z" fill="#5e5e5e"/><path d="M1851.8 989.65l-14.27 4.63V985z" stroke="#5e5e5e" stroke-width="3" fill="#5e5e5e"/><path d="M1312.84 1008.18c0-3.3 2.7-6 6-6h155.38c3.3 0 6 2.7 6 6v35.15c0 3.3-2.7 6-6 6h-155.38c-3.3 0-6-2.7-6-6z" fill="none"/><g><use xlink:href="#af" transform="matrix(1,0,0,1,1324.8399827639482,1014.1838558632063) translate(1.0798611111111143 19.17230902777778)"/><use xlink:href="#ag" transform="matrix(1,0,0,1,1324.8399827639482,1014.1838558632063) translate(56.450954861111114 19.17230902777778)"/></g><path d="M1246.45 1000.9h266.36M1246.5 1000.9h-1.55" stroke="#5e5e5e" stroke-width="3" fill="none"/><path d="M1528.58 1000.9l-14.27 4.65v-9.27z" stroke="#5e5e5e" stroke-width="3" fill="#5e5e5e"/><defs><path fill="#333" d="M190 0L58-211 59 0H30v-248h39L202-35l-2-213h31V0h-41" id="ah"/><path fill="#333" d="M100-194c63 0 86 42 84 106H49c0 40 14 67 53 68 26 1 43-12 49-29l28 8c-11 28-37 45-77 45C44 4 14-33 15-96c1-61 26-98 85-98zm52 81c6-60-76-77-97-28-3 7-6 17-6 28h103" id="ai"/><path fill="#333" d="M59-47c-2 24 18 29 38 22v24C64 9 27 4 27-40v-127H5v-23h24l9-43h21v43h35v23H59v120" id="aj"/><path fill="#333" d="M206 0h-36l-40-164L89 0H53L-1-190h32L70-26l43-164h34l41 164 42-164h31" id="ak"/><path fill="#333" d="M100-194c62-1 85 37 85 99 1 63-27 99-86 99S16-35 15-95c0-66 28-99 85-99zM99-20c44 1 53-31 53-75 0-43-8-75-51-75s-53 32-53 75 10 74 51 75" id="al"/><path fill="#333" d="M114-163C36-179 61-72 57 0H25l-1-190h30c1 12-1 29 2 39 6-27 23-49 58-41v29" id="am"/><path fill="#333" d="M143 0L79-87 56-68V0H24v-261h32v163l83-92h37l-77 82L181 0h-38" id="an"/><g id="a"><use transform="matrix(0.06172839506172839,0,0,0.06172839506172839,0,0)" xlink:href="#ah"/><use transform="matrix(0.06172839506172839,0,0,0.06172839506172839,15.987654320987653,0)" xlink:href="#ai"/><use transform="matrix(0.06172839506172839,0,0,0.06172839506172839,28.333333333333332,0)" xlink:href="#aj"/><use transform="matrix(0.06172839506172839,0,0,0.06172839506172839,34.50617283950617,0)" xlink:href="#ak"/><use transform="matrix(0.06172839506172839,0,0,0.06172839506172839,50.49382716049382,0)" xlink:href="#al"/><use transform="matrix(0.06172839506172839,0,0,0.06172839506172839,62.8395061728395,0)" xlink:href="#am"/><use transform="matrix(0.06172839506172839,0,0,0.06172839506172839,70.18518518518518,0)" xlink:href="#an"/></g><path fill="#333" d="M525-1215c-186 0-324 162-324 352v367c-5 191 137 352 324 352 189 0 324-159 324-352v-367c4-191-136-352-324-352zm0-165c275 0 490 253 490 533v335c9 280-215 533-490 533S36-232 36-512v-335c-8-279 214-533 489-533" id="ao"/><path fill="#333" d="M530-826c-179 0-312 160-312 342V0H53v-970h165v127c78-99 182-148 312-148 289 0 456 203 456 499V0H819v-484c2-203-95-342-289-342" id="ap"/><g id="b"><use transform="matrix(0.015190972222222224,0,0,0.015190972222222224,0,0)" xlink:href="#ao"/><use transform="matrix(0.015190972222222224,0,0,0.015190972222222224,17.651909722222225,0)" xlink:href="#ap"/></g><path fill="#333" d="M395 0C260 4 152-110 152-245v-560H6v-165c76 0 121-15 136-44 7-13 10-65 10-156h165v200h235v165H317v560c-9 115 138 72 235 80V0H395" id="aq"/><path fill="#333" d="M838-484c0-173-151-342-322-342-177 0-319 167-319 342 0 176 146 340 319 340 171 0 322-167 322-340zm-807 0c0-265 224-507 485-507 260 0 487 246 487 507 0 260-229 505-487 505C255 21 31-224 31-484" id="ar"/><path fill="#333" d="M223-484c0 174 142 340 313 340 169 0 319-168 319-340 0-174-147-342-319-342-173 0-313 166-313 342zm798 0c0 261-225 505-485 505-129 0-235-50-318-149v516H53V-970h165v128c83-99 189-149 318-149 260 0 485 246 485 507" id="as"/><path fill="#333" d="M233-1172c-50 0-96-44-96-94 0-49 46-93 96-93s96 43 96 93c0 52-44 94-96 94zM26-970h289V0H150v-805H26v-165" id="at"/><path fill="#333" d="M30-484c0-265 224-507 485-507 196 0 345 102 446 305H770c-63-93-148-140-255-140-177 0-319 167-319 342 0 176 146 340 319 340 93 0 176-43 249-128h193C846-77 699 21 515 21 254 21 30-224 30-484" id="au"/><g id="c"><use transform="matrix(0.015190972222222224,0,0,0.015190972222222224,0,0)" xlink:href="#aq"/><use transform="matrix(0.015190972222222224,0,0,0.015190972222222224,9.752604166666668,0)" xlink:href="#ar"/><use transform="matrix(0.015190972222222224,0,0,0.015190972222222224,27.298177083333336,0)" xlink:href="#as"/><use transform="matrix(0.015190972222222224,0,0,0.015190972222222224,44.661458333333336,0)" xlink:href="#at"/><use transform="matrix(0.015190972222222224,0,0,0.015190972222222224,51.19357638888889,0)" xlink:href="#au"/></g><path fill="#333" d="M535-805c-177 0-317 145-317 321V0H51v-970h167v134c85-89 189-134 310-134h218v218c-83-35-153-53-211-53" id="av"/><path fill="#333" d="M816-616c-46-109-154-210-294-210-133 0-258 109-301 210h595zM31-484c0-260 230-507 491-507 282 0 495 254 487 541H196c10 148 163 311 326 306 147-5 277-104 326-215l166 28C947-150 753 16 522 21 260 27 31-223 31-484" id="aw"/><path fill="#333" d="M192-484c0 176 132 340 304 340 176 0 296-170 296-340 0-175-125-342-296-342-172 0-304 166-304 342zM962-87c7 262-205 470-468 470C247 383 70 200 36-22l162-27c41 178 140 267 297 267 189 0 305-150 302-345C718-28 618 21 496 21 226 21 26-209 26-484c0-263 209-507 470-507 123 0 224 50 301 151v-130h165v883" id="ax"/><path fill="#333" d="M68-580C-45-823 215-987 454-987c229 0 422 106 446 301l-161 34c-17-73-62-125-139-149-121-38-274-36-352 29-25 21-38 44-38 71 0 66 59 112 178 131 86 13 176 12 261 32 115 27 244 96 244 266 0 81-40 141-102 191C645 38 359 49 192-49 101-102 48-180 33-282l163-35c5 118 149 172 287 172 93 0 238-46 238-127 0-45-37-74-103-103-48-21-337-53-386-71-61-22-144-92-164-134" id="ay"/><path fill="#333" d="M860-484c0-175-137-342-310-342-172 0-345 169-345 342s167 340 340 340c172 0 315-166 315-340zm-820 0c0-260 250-507 510-507 131 0 236 50 315 149v-515h167V0H865v-128C782-29 675 21 545 21 285 21 40-224 40-484" id="az"/><g id="d"><use transform="matrix(0.015190972222222224,0,0,0.015190972222222224,0,0)" xlink:href="#av"/><use transform="matrix(0.015190972222222224,0,0,0.015190972222222224,12.259114583333334,0)" xlink:href="#aw"/><use transform="matrix(0.015190972222222224,0,0,0.015190972222222224,29.8046875,0)" xlink:href="#ax"/><use transform="matrix(0.015190972222222224,0,0,0.015190972222222224,46.970486111111114,0)" xlink:href="#at"/><use transform="matrix(0.015190972222222224,0,0,0.015190972222222224,53.50260416666667,0)" xlink:href="#ay"/><use transform="matrix(0.015190972222222224,0,0,0.015190972222222224,69.19487847222223,0)" xlink:href="#aq"/><use transform="matrix(0.015190972222222224,0,0,0.015190972222222224,78.9474826388889,0)" xlink:href="#aw"/><use transform="matrix(0.015190972222222224,0,0,0.015190972222222224,96.49305555555557,0)" xlink:href="#av"/><use transform="matrix(0.015190972222222224,0,0,0.015190972222222224,108.75217013888891,0)" xlink:href="#aw"/><use transform="matrix(0.015190972222222224,0,0,0.015190972222222224,126.2977430555556,0)" xlink:href="#az"/></g><linearGradient gradientUnits="userSpaceOnUse" id="e" x1="477.97" y1="55.23" x2="471.97" y2="49.23"><stop offset="0%" stop-color="#6f7681" stop-opacity=".25"/><stop offset="50%" stop-color="#6f7681" stop-opacity="0"/></linearGradient><linearGradient gradientUnits="userSpaceOnUse" id="f" x1="477.97" y1="318.03" x2="477.97" y2="49.23"><stop offset="0%" stop-color="#6f7681" stop-opacity="0"/><stop offset="97.77%" stop-color="#6f7681" stop-opacity=".25"/><stop offset="97.76%" stop-color="#6f7681" stop-opacity="0"/><stop offset="100%" stop-color="#6f7681" stop-opacity="0"/></linearGradient><linearGradient gradientUnits="userSpaceOnUse" id="g" x1="1535.48" y1="55.23" x2="1541.48" y2="49.23"><stop offset="0%" stop-color="#6f7681" stop-opacity=".25"/><stop offset="50%" stop-color="#6f7681" stop-opacity="0"/></linearGradient><linearGradient gradientUnits="userSpaceOnUse" id="h" x1="471.97" y1="55.23" x2="1541.48" y2="55.23"><stop offset="0%" stop-color="#6f7681" stop-opacity="0"/><stop offset="99.44%" stop-color="#6f7681" stop-opacity=".25"/><stop offset="99.43%" stop-color="#6f7681" stop-opacity="0"/><stop offset="100%" stop-color="#6f7681" stop-opacity="0"/></linearGradient><linearGradient gradientUnits="userSpaceOnUse" id="i" x1="1535.48" y1="312.03" x2="1541.48" y2="318.03"><stop offset="0%" stop-color="#6f7681" stop-opacity=".25"/><stop offset="50%" stop-color="#6f7681" stop-opacity="0"/></linearGradient><linearGradient gradientUnits="userSpaceOnUse" id="j" x1="477.97" y1="49.23" x2="477.97" y2="318.03"><stop offset="0%" stop-color="#6f7681" stop-opacity="0"/><stop offset="97.77%" stop-color="#6f7681" stop-opacity=".25"/><stop offset="97.76%" stop-color="#6f7681" stop-opacity="0"/><stop offset="100%" stop-color="#6f7681" stop-opacity="0"/></linearGradient><linearGradient gradientUnits="userSpaceOnUse" id="k" x1="477.97" y1="312.03" x2="471.97" y2="318.03"><stop offset="0%" stop-color="#6f7681" stop-opacity=".25"/><stop offset="50%" stop-color="#6f7681" stop-opacity="0"/></linearGradient><linearGradient gradientUnits="userSpaceOnUse" id="l" x1="1541.48" y1="55.23" x2="471.97" y2="55.23"><stop offset="0%" stop-color="#6f7681" stop-opacity="0"/><stop offset="99.44%" stop-color="#6f7681" stop-opacity=".25"/><stop offset="99.43%" stop-color="#6f7681" stop-opacity="0"/><stop offset="100%" stop-color="#6f7681" stop-opacity="0"/></linearGradient><path fill="#333" d="M233-177c-1 41-23 64-60 70L243 0h-38l-65-103H63V0H30v-248c88 3 205-21 203 71zM63-129c60-2 137 13 137-47 0-61-80-42-137-45v92" id="aA"/><path fill="#333" d="M140-251c81 0 123 46 123 126C263-46 219 4 140 4 59 4 17-45 17-125s42-126 123-126zm0 227c63 0 89-41 89-101s-29-99-89-99c-61 0-89 39-89 99S79-25 140-24" id="aB"/><path fill="#333" d="M185-189c-5-48-123-54-124 2 14 75 158 14 163 119 3 78-121 87-175 55-17-10-28-26-33-46l33-7c5 56 141 63 141-1 0-78-155-14-162-118-5-82 145-84 179-34 5 7 8 16 11 25" id="aC"/><path fill="#333" d="M212-179c-10-28-35-45-73-45-59 0-87 40-87 99 0 60 29 101 89 101 43 0 62-24 78-52l27 14C228-24 195 4 139 4 59 4 22-46 18-125c-6-104 99-153 187-111 19 9 31 26 39 46" id="aD"/><path fill="#333" d="M117-194c89-4 53 116 60 194h-32v-121c0-31-8-49-39-48C34-167 62-67 57 0H25l-1-190h30c1 10-1 24 2 32 11-22 29-35 61-36" id="aE"/><path fill="#333" d="M96-169c-40 0-48 33-48 73s9 75 48 75c24 0 41-14 43-38l32 2c-6 37-31 61-74 61-59 0-76-41-82-99-10-93 101-131 147-64 4 7 5 14 7 22l-32 3c-4-21-16-35-41-35" id="aF"/><path fill="#333" d="M24-231v-30h32v30H24zM24 0v-190h32V0H24" id="aG"/><g id="m"><use transform="matrix(0.06172839506172839,0,0,0.06172839506172839,0,0)" xlink:href="#aA"/><use transform="matrix(0.06172839506172839,0,0,0.06172839506172839,15.987654320987653,0)" xlink:href="#aB"/><use transform="matrix(0.06172839506172839,0,0,0.06172839506172839,33.2716049382716,0)" xlink:href="#aC"/><use transform="matrix(0.06172839506172839,0,0,0.06172839506172839,48.08641975308642,0)" xlink:href="#aD"/><use transform="matrix(0.06172839506172839,0,0,0.06172839506172839,64.07407407407408,0)" xlink:href="#al"/><use transform="matrix(0.06172839506172839,0,0,0.06172839506172839,76.41975308641976,0)" xlink:href="#aE"/><use transform="matrix(0.06172839506172839,0,0,0.06172839506172839,88.76543209876544,0)" xlink:href="#aE"/><use transform="matrix(0.06172839506172839,0,0,0.06172839506172839,101.11111111111113,0)" xlink:href="#ai"/><use transform="matrix(0.06172839506172839,0,0,0.06172839506172839,113.45679012345681,0)" xlink:href="#aF"/><use transform="matrix(0.06172839506172839,0,0,0.06172839506172839,124.56790123456793,0)" xlink:href="#aj"/><use transform="matrix(0.06172839506172839,0,0,0.06172839506172839,130.74074074074076,0)" xlink:href="#aG"/><use transform="matrix(0.06172839506172839,0,0,0.06172839506172839,135.6172839506173,0)" xlink:href="#al"/><use transform="matrix(0.06172839506172839,0,0,0.06172839506172839,147.96296296296296,0)" xlink:href="#aE"/></g><path fill="#333" d="M135-143c-3-34-86-38-87 0 15 53 115 12 119 90S17 21 10-45l28-5c4 36 97 45 98 0-10-56-113-15-118-90-4-57 82-63 122-42 12 7 21 19 24 35" id="aH"/><path fill="#333" d="M127-220V0H93v-220H8v-28h204v28h-85" id="aI"/><path fill="#333" d="M115-194c55 1 70 41 70 98S169 2 115 4C84 4 66-9 55-30l1 105H24l-1-265h31l2 30c10-21 28-34 59-34zm-8 174c40 0 45-34 45-75s-6-73-45-74c-42 0-51 32-51 76 0 43 10 73 51 73" id="aJ"/><path fill="#333" d="M141-36C126-15 110 5 73 4 37 3 15-17 15-53c-1-64 63-63 125-63 3-35-9-54-41-54-24 1-41 7-42 31l-33-3c5-37 33-52 76-52 45 0 72 20 72 64v82c-1 20 7 32 28 27v20c-31 9-61-2-59-35zM48-53c0 20 12 33 32 33 41-3 63-29 60-74-43 2-92-5-92 41" id="aK"/><g id="n"><use transform="matrix(0.06172839506172839,0,0,0.06172839506172839,0,0)" xlink:href="#aA"/><use transform="matrix(0.06172839506172839,0,0,0.06172839506172839,15.987654320987653,0)" xlink:href="#al"/><use transform="matrix(0.06172839506172839,0,0,0.06172839506172839,28.333333333333332,0)" xlink:href="#aH"/><use transform="matrix(0.06172839506172839,0,0,0.06172839506172839,39.44444444444444,0)" xlink:href="#aI"/><use transform="matrix(0.06172839506172839,0,0,0.06172839506172839,50.49382716049383,0)" xlink:href="#al"/><use transform="matrix(0.06172839506172839,0,0,0.06172839506172839,62.839506172839506,0)" xlink:href="#aJ"/><use transform="matrix(0.06172839506172839,0,0,0.06172839506172839,75.18518518518519,0)" xlink:href="#aG"/><use transform="matrix(0.06172839506172839,0,0,0.06172839506172839,80.06172839506173,0)" xlink:href="#aF"/><use transform="matrix(0.06172839506172839,0,0,0.06172839506172839,91.17283950617285,0)" xlink:href="#aC"/><use transform="matrix(0.06172839506172839,0,0,0.06172839506172839,105.98765432098766,0)" xlink:href="#aj"/><use transform="matrix(0.06172839506172839,0,0,0.06172839506172839,112.1604938271605,0)" xlink:href="#aK"/><use transform="matrix(0.06172839506172839,0,0,0.06172839506172839,124.50617283950618,0)" xlink:href="#aj"/><use transform="matrix(0.06172839506172839,0,0,0.06172839506172839,130.679012345679,0)" xlink:href="#ai"/></g><g id="o"><use transform="matrix(0.06172839506172839,0,0,0.06172839506172839,0,0)" xlink:href="#aA"/><use transform="matrix(0.06172839506172839,0,0,0.06172839506172839,15.987654320987653,0)" xlink:href="#al"/><use transform="matrix(0.06172839506172839,0,0,0.06172839506172839,28.333333333333332,0)" xlink:href="#aH"/><use transform="matrix(0.06172839506172839,0,0,0.06172839506172839,39.44444444444444,0)" xlink:href="#aI"/><use transform="matrix(0.06172839506172839,0,0,0.06172839506172839,50.49382716049383,0)" xlink:href="#aF"/><use transform="matrix(0.06172839506172839,0,0,0.06172839506172839,61.60493827160494,0)" xlink:href="#aJ"/><use transform="matrix(0.06172839506172839,0,0,0.06172839506172839,73.95061728395062,0)" xlink:href="#aD"/><use transform="matrix(0.06172839506172839,0,0,0.06172839506172839,89.93827160493828,0)" xlink:href="#al"/><use transform="matrix(0.06172839506172839,0,0,0.06172839506172839,102.28395061728396,0)" xlink:href="#aE"/><use transform="matrix(0.06172839506172839,0,0,0.06172839506172839,114.62962962962965,0)" xlink:href="#aE"/><use transform="matrix(0.06172839506172839,0,0,0.06172839506172839,126.97530864197533,0)" xlink:href="#ai"/><use transform="matrix(0.06172839506172839,0,0,0.06172839506172839,139.32098765432102,0)" xlink:href="#aF"/><use transform="matrix(0.06172839506172839,0,0,0.06172839506172839,150.43209876543213,0)" xlink:href="#aj"/><use transform="matrix(0.06172839506172839,0,0,0.06172839506172839,156.60493827160496,0)" xlink:href="#al"/><use transform="matrix(0.06172839506172839,0,0,0.06172839506172839,168.95061728395063,0)" xlink:href="#am"/></g><path fill="#333" d="M240 0l2-218c-23 76-54 145-80 218h-23L58-218 59 0H30v-248h44l77 211c21-75 51-140 76-211h43V0h-30" id="aL"/><path fill="#333" d="M177-190C167-65 218 103 67 71c-23-6-38-20-44-43l32-5c15 47 100 32 89-28v-30C133-14 115 1 83 1 29 1 15-40 15-95c0-56 16-97 71-98 29-1 48 16 59 35 1-10 0-23 2-32h30zM94-22c36 0 50-32 50-73 0-42-14-75-50-75-39 0-46 34-46 75s6 73 46 73" id="aM"/><path fill="#333" d="M137 0h-34L2-248h35l83 218 83-218h36" id="aN"/><path fill="#333" d="M84 4C-5 8 30-112 23-190h32v120c0 31 7 50 39 49 72-2 45-101 50-169h31l1 190h-30c-1-10 1-25-2-33-11 22-28 36-60 37" id="aO"/><path fill="#333" d="M24 0v-261h32V0H24" id="aP"/><path fill="#333" d="M9 0v-24l116-142H16v-24h144v24L44-24h123V0H9" id="aQ"/><g id="p"><use transform="matrix(0.06172839506172839,0,0,0.06172839506172839,0,0)" xlink:href="#aL"/><use transform="matrix(0.06172839506172839,0,0,0.06172839506172839,18.456790123456788,0)" xlink:href="#ai"/><use transform="matrix(0.06172839506172839,0,0,0.06172839506172839,30.80246913580247,0)" xlink:href="#aH"/><use transform="matrix(0.06172839506172839,0,0,0.06172839506172839,41.91358024691358,0)" xlink:href="#aH"/><use transform="matrix(0.06172839506172839,0,0,0.06172839506172839,53.0246913580247,0)" xlink:href="#aK"/><use transform="matrix(0.06172839506172839,0,0,0.06172839506172839,65.37037037037038,0)" xlink:href="#aM"/><use transform="matrix(0.06172839506172839,0,0,0.06172839506172839,77.71604938271606,0)" xlink:href="#ai"/><use transform="matrix(0.06172839506172839,0,0,0.06172839506172839,90.06172839506175,0)" xlink:href="#aN"/><use transform="matrix(0.06172839506172839,0,0,0.06172839506172839,104.44444444444446,0)" xlink:href="#aG"/><use transform="matrix(0.06172839506172839,0,0,0.06172839506172839,109.320987654321,0)" xlink:href="#aH"/><use transform="matrix(0.06172839506172839,0,0,0.06172839506172839,120.43209876543212,0)" xlink:href="#aO"/><use transform="matrix(0.06172839506172839,0,0,0.06172839506172839,132.7777777777778,0)" xlink:href="#aK"/><use transform="matrix(0.06172839506172839,0,0,0.06172839506172839,145.12345679012347,0)" xlink:href="#aP"/><use transform="matrix(0.06172839506172839,0,0,0.06172839506172839,150,0)" xlink:href="#aG"/><use transform="matrix(0.06172839506172839,0,0,0.06172839506172839,154.87654320987653,0)" xlink:href="#aQ"/><use transform="matrix(0.06172839506172839,0,0,0.06172839506172839,165.98765432098764,0)" xlink:href="#aK"/><use transform="matrix(0.06172839506172839,0,0,0.06172839506172839,178.33333333333331,0)" xlink:href="#aj"/><use transform="matrix(0.06172839506172839,0,0,0.06172839506172839,184.50617283950615,0)" xlink:href="#aG"/><use transform="matrix(0.06172839506172839,0,0,0.06172839506172839,189.38271604938268,0)" xlink:href="#al"/><use transform="matrix(0.06172839506172839,0,0,0.06172839506172839,201.72839506172835,0)" xlink:href="#aE"/><use transform="matrix(0.06172839506172839,0,0,0.06172839506172839,214.07407407407402,0)" xlink:href="#aH"/></g><path fill="#333" d="M610-1355l-22 109c-119 46-223 236-310 569-71 271-107 501-107 688 0 157 32 250 97 279l-22 109C114 368 48 216 48-56c0-223 46-470 137-740 113-335 255-522 425-559" id="aR"/><path fill="#333" d="M292-1355h132L143 0H11" id="aS"/><path fill="#333" d="M288-1267c0-45 51-90 96-90 43 0 64 20 64 60 0 47-49 92-96 92-43 0-64-21-64-62zM107-957h257L166 0H36l171-827H80" id="aT"/><path fill="#333" d="M417 20C223 20 19-66 41-254l118-27c-25 122 145 170 269 170 125 0 323-70 323-182 0-39-36-66-101-94-47-20-331-58-380-77-69-27-135-100-136-186-3-220 224-325 465-325 187 0 408 88 380 274l-119 27c-3-116-105-174-305-174-134 0-287 61-287 181 0 55 39 95 119 109 82 15 166 20 249 34 104 17 176 58 217 115 20 28 30 63 30 104 0 197-256 325-466 325" id="aU"/><path fill="#333" d="M290 0C167 2 80-98 108-232l123-595H81l27-130c75 0 124-16 147-49 13-19 29-71 46-157h130l-43 206h241l-27 130H361c-41 207-94 408-126 619-16 106 129 73 223 78L431 0H290" id="aV"/><path fill="#333" d="M641-849c-221 0-456 191-484 383 143-37 356-95 641-171 51-14 80-60 83-113l-9-24c-37-50-114-75-231-75zm-19-130c198 0 391 67 391 241 0 95-79 199-171 224-152 42-381 102-686 183 24 136 145 221 307 221 142 0 269-65 382-194l92 92C836-90 661 18 462 23 221 29 21-155 21-393c0-288 314-586 601-586" id="aW"/><path fill="#333" d="M943-513c35-176-82-336-243-335-227 2-374 133-416 329L173 1H45l198-957h132l-17 84c95-69 205-104 330-104 252 0 438 207 384 472L968 1H837" id="aX"/><path fill="#333" d="M173-379c0 146 106 275 248 273 226-3 375-133 416-329l86-412c-205-8-374 25-516 101-156 85-234 207-234 367zM433 22C209 22 44-153 44-379c0-204 92-360 276-467 168-97 378-142 630-130l79-380h133c-41 202-137 659-287 1372L746 1l17-83C668-13 558 22 433 22" id="aY"/><g id="q"><use transform="matrix(0.010850694444444444,0,0,0.010850694444444444,0,0)" xlink:href="#aR"/><use transform="matrix(0.010850694444444444,0,0,0.010850694444444444,6.684027777777778,0)" xlink:href="#aS"/><use transform="matrix(0.010850694444444444,0,0,0.010850694444444444,11.20876736111111,0)" xlink:href="#aT"/><use transform="matrix(0.010850694444444444,0,0,0.010850694444444444,16.23263888888889,0)" xlink:href="#aU"/><use transform="matrix(0.010850694444444444,0,0,0.010850694444444444,27.28949652777778,0)" xlink:href="#aV"/><use transform="matrix(0.010850694444444444,0,0,0.010850694444444444,34.201388888888886,0)" xlink:href="#aW"/><use transform="matrix(0.010850694444444444,0,0,0.010850694444444444,45.83333333333333,0)" xlink:href="#aX"/><use transform="matrix(0.010850694444444444,0,0,0.010850694444444444,58.21397569444444,0)" xlink:href="#aW"/><use transform="matrix(0.010850694444444444,0,0,0.010850694444444444,69.84592013888889,0)" xlink:href="#aY"/></g><path fill="#333" d="M162-956h172c27-126 45-202 56-228 43-96 120-168 248-168 93 0 156 41 187 124l-120 48c-9-29-32-43-71-43-58 0-100 34-127 101-7 17-21 72-40 166h195l-27 130H440L230 182c-17 98-104 218-210 216l5-129c42-28 69-69 80-122l202-973H135" id="aZ"/><path fill="#333" d="M664-846c-234 0-462 241-462 478 0 150 130 261 284 261 231 0 472-224 472-457 0-166-128-282-294-282zM492 23C265 23 69-143 74-367c6-246 98-373 250-490 105-81 221-118 340-118 233 0 423 176 423 407 0 300-295 591-595 591" id="ba"/><path fill="#333" d="M337-783c109-116 234-174 375-174h204l-36 174c-163-76-329-52-456 57-80 68-130 151-150 248L175 0H43l198-957h132" id="bb"/><g id="r"><use transform="matrix(0.010850694444444444,0,0,0.010850694444444444,0,0)" xlink:href="#aZ"/><use transform="matrix(0.010850694444444444,0,0,0.010850694444444444,6.34765625,0)" xlink:href="#ba"/><use transform="matrix(0.010850694444444444,0,0,0.010850694444444444,18.717447916666664,0)" xlink:href="#bb"/></g><path fill="#333" d="M936-559c0-193-157-291-361-291-76 0-148 5-216 15L214-137c50 22 114 33 193 33 247 0 529-215 529-455zm43-253C1266-432 821 14 413 14c-81 0-154-15-221-44L99 416c-29-3-72-9-129-16L220-804c-34 12-64 25-90 39L73-882c55-29 114-50 177-65 3-18 9-45 17-82l129 16-9 44c77-11 286-11 371 13 87 24 163 68 221 144" id="bc"/><path fill="#333" d="M636-851c-239 0-464 241-464 478 0 150 131 261 283 261 129 0 240-48 334-144l108 75C773-48 628 18 462 18 235 18 39-148 44-372c6-245 98-373 250-490 162-124 367-162 556-65 70 36 121 89 158 155l-121 51c-55-87-138-130-251-130" id="bd"/><g id="s"><use transform="matrix(0.010850694444444444,0,0,0.010850694444444444,0,0)" xlink:href="#aV"/><use transform="matrix(0.010850694444444444,0,0,0.010850694444444444,6.911892361111111,0)" xlink:href="#ba"/><use transform="matrix(0.010850694444444444,0,0,0.010850694444444444,19.28168402777778,0)" xlink:href="#bc"/><use transform="matrix(0.010850694444444444,0,0,0.010850694444444444,31.82508680555556,0)" xlink:href="#aT"/><use transform="matrix(0.010850694444444444,0,0,0.010850694444444444,36.848958333333336,0)" xlink:href="#bd"/></g><path fill="#333" d="M189-442c-35 176 82 336 243 335 227-2 374-133 416-329l111-520h128L885 16 757 0l17-83C679-14 569 21 444 21 192 21 6-186 60-451l104-505h131" id="be"/><path fill="#333" d="M189-379c0 145 106 274 248 272 229-3 373-133 416-329l89-403c-203-10-373 23-516 98-158 83-237 204-237 362zM449 21C225 21 60-154 60-380c0-199 92-352 277-459 153-89 336-133 549-133 140 0 211 22 197 90L893 16 762 0l17-83C684-14 574 21 449 21" id="bf"/><path fill="#333" d="M6 401l23-109c119-46 222-236 309-570 71-271 106-500 106-687 0-157-32-250-97-279l23-109c131 31 197 183 197 454 0 223-46 469-137 740C317 177 175 364 6 401" id="bg"/><g id="t"><use transform="matrix(0.010850694444444444,0,0,0.010850694444444444,0,0)" xlink:href="#be"/><use transform="matrix(0.010850694444444444,0,0,0.010850694444444444,12.28298611111111,0)" xlink:href="#bc"/><use transform="matrix(0.010850694444444444,0,0,0.010850694444444444,24.82638888888889,0)" xlink:href="#aY"/><use transform="matrix(0.010850694444444444,0,0,0.010850694444444444,37.369791666666664,0)" xlink:href="#bf"/><use transform="matrix(0.010850694444444444,0,0,0.010850694444444444,49.772135416666664,0)" xlink:href="#aV"/><use transform="matrix(0.010850694444444444,0,0,0.010850694444444444,56.68402777777778,0)" xlink:href="#aW"/><use transform="matrix(0.010850694444444444,0,0,0.010850694444444444,68.31597222222221,0)" xlink:href="#aU"/><use transform="matrix(0.010850694444444444,0,0,0.010850694444444444,79.3728298611111,0)" xlink:href="#bg"/></g><linearGradient gradientUnits="userSpaceOnUse" id="u" x1="463.87" y1="767.81" x2="457.87" y2="761.81"><stop offset="0%" stop-color="#6f7681" stop-opacity=".25"/><stop offset="50%" stop-color="#6f7681" stop-opacity="0"/></linearGradient><linearGradient gradientUnits="userSpaceOnUse" id="v" x1="463.87" y1="1076.48" x2="463.87" y2="761.81"><stop offset="0%" stop-color="#6f7681" stop-opacity="0"/><stop offset="98.09%" stop-color="#6f7681" stop-opacity=".25"/><stop offset="98.08%" stop-color="#6f7681" stop-opacity="0"/><stop offset="100%" stop-color="#6f7681" stop-opacity="0"/></linearGradient><linearGradient gradientUnits="userSpaceOnUse" id="w" x1="2079.06" y1="767.81" x2="2085.06" y2="761.81"><stop offset="0%" stop-color="#6f7681" stop-opacity=".25"/><stop offset="50%" stop-color="#6f7681" stop-opacity="0"/></linearGradient><linearGradient gradientUnits="userSpaceOnUse" id="x" x1="457.87" y1="767.81" x2="2085.06" y2="767.81"><stop offset="0%" stop-color="#6f7681" stop-opacity="0"/><stop offset="99.63%" stop-color="#6f7681" stop-opacity=".25"/><stop offset="99.62%" stop-color="#6f7681" stop-opacity="0"/><stop offset="100%" stop-color="#6f7681" stop-opacity="0"/></linearGradient><linearGradient gradientUnits="userSpaceOnUse" id="y" x1="2079.06" y1="1070.48" x2="2085.06" y2="1076.48"><stop offset="0%" stop-color="#6f7681" stop-opacity=".25"/><stop offset="50%" stop-color="#6f7681" stop-opacity="0"/></linearGradient><linearGradient gradientUnits="userSpaceOnUse" id="z" x1="463.87" y1="761.81" x2="463.87" y2="1076.48"><stop offset="0%" stop-color="#6f7681" stop-opacity="0"/><stop offset="98.09%" stop-color="#6f7681" stop-opacity=".25"/><stop offset="98.08%" stop-color="#6f7681" stop-opacity="0"/><stop offset="100%" stop-color="#6f7681" stop-opacity="0"/></linearGradient><linearGradient gradientUnits="userSpaceOnUse" id="A" x1="463.87" y1="1070.48" x2="457.87" y2="1076.48"><stop offset="0%" stop-color="#6f7681" stop-opacity=".25"/><stop offset="50%" stop-color="#6f7681" stop-opacity="0"/></linearGradient><linearGradient gradientUnits="userSpaceOnUse" id="B" x1="2085.06" y1="767.81" x2="457.87" y2="767.81"><stop offset="0%" stop-color="#6f7681" stop-opacity="0"/><stop offset="99.63%" stop-color="#6f7681" stop-opacity=".25"/><stop offset="99.62%" stop-color="#6f7681" stop-opacity="0"/><stop offset="100%" stop-color="#6f7681" stop-opacity="0"/></linearGradient><path fill="#333" d="M1018-991c257 0 359 224 359 507V0h-166v-484c0-228-64-342-193-342-155-1-215 166-215 342V0H637l-1-484c0-228-64-342-193-342-159-1-225 164-225 342V0H53v-970h165v68c59-59 134-89 225-89 133 0 229 56 286 168 46-112 142-168 289-168" id="bh"/><path fill="#333" d="M484-144c91 0 275-43 275-120v-184c-54 18-283 13-339 27-84 21-172 73-172 157 0 80 79 120 236 120zm27-847c168 0 413 106 413 260v563c0 15 16 23 48 26-4 64-6 118-6 163-81-4-138-29-172-76-80 51-181 76-304 76C213 21 75-75 75-266c0-155 132-276 270-302-15-8 340-16 395-49 13-7 20-20 21-39-1 24-2 8-2-49 0-71-154-124-234-124-152 0-248 58-288 173L79-690c32-191 203-301 432-301" id="bi"/><g id="C"><use transform="matrix(0.015190972222222224,0,0,0.015190972222222224,0,0)" xlink:href="#bh"/><use transform="matrix(0.015190972222222224,0,0,0.015190972222222224,23.956163194444446,0)" xlink:href="#aw"/><use transform="matrix(0.015190972222222224,0,0,0.015190972222222224,41.501736111111114,0)" xlink:href="#ay"/><use transform="matrix(0.015190972222222224,0,0,0.015190972222222224,57.19401041666667,0)" xlink:href="#ay"/><use transform="matrix(0.015190972222222224,0,0,0.015190972222222224,72.88628472222223,0)" xlink:href="#bi"/><use transform="matrix(0.015190972222222224,0,0,0.015190972222222224,89.53559027777779,0)" xlink:href="#ax"/><use transform="matrix(0.015190972222222224,0,0,0.015190972222222224,106.7013888888889,0)" xlink:href="#aw"/></g><path fill="#333" d="M565-1357L165 0H-13l404-1357h174" id="bj"/><path fill="#333" d="M187-970l311 757c69-168 171-420 308-757h181L592 0H399L3-970h184" id="bk"/><g id="D"><use transform="matrix(0.015190972222222224,0,0,0.015190972222222224,0,0)" xlink:href="#ay"/><use transform="matrix(0.015190972222222224,0,0,0.015190972222222224,15.692274305555557,0)" xlink:href="#aw"/><use transform="matrix(0.015190972222222224,0,0,0.015190972222222224,33.23784722222223,0)" xlink:href="#ap"/><use transform="matrix(0.015190972222222224,0,0,0.015190972222222224,50.661892361111114,0)" xlink:href="#aq"/><use transform="matrix(0.015190972222222224,0,0,0.015190972222222224,60.414496527777786,0)" xlink:href="#bj"/><use transform="matrix(0.015190972222222224,0,0,0.015190972222222224,70.00000000000001,0)" xlink:href="#av"/><use transform="matrix(0.015190972222222224,0,0,0.015190972222222224,82.25911458333336,0)" xlink:href="#aw"/><use transform="matrix(0.015190972222222224,0,0,0.015190972222222224,99.80468750000003,0)" xlink:href="#au"/><use transform="matrix(0.015190972222222224,0,0,0.015190972222222224,115.72482638888891,0)" xlink:href="#aw"/><use transform="matrix(0.015190972222222224,0,0,0.015190972222222224,133.27039930555557,0)" xlink:href="#at"/><use transform="matrix(0.015190972222222224,0,0,0.015190972222222224,139.80251736111111,0)" xlink:href="#bk"/><use transform="matrix(0.015190972222222224,0,0,0.015190972222222224,155.46440972222223,0)" xlink:href="#aw"/><use transform="matrix(0.015190972222222224,0,0,0.015190972222222224,173.00998263888889,0)" xlink:href="#az"/></g><path fill="#333" d="M115-194c53 0 69 39 70 98 0 66-23 100-70 100C84 3 66-7 56-30L54 0H23l1-261h32v101c10-23 28-34 59-34zm-8 174c40 0 45-34 45-75 0-40-5-75-45-74-42 0-51 32-51 76 0 43 10 73 51 73" id="bl"/><g id="E"><use transform="matrix(0.06172839506172839,0,0,0.06172839506172839,0,0)" xlink:href="#aN"/><use transform="matrix(0.06172839506172839,0,0,0.06172839506172839,14.382716049382715,0)" xlink:href="#aG"/><use transform="matrix(0.06172839506172839,0,0,0.06172839506172839,19.25925925925926,0)" xlink:href="#aH"/><use transform="matrix(0.06172839506172839,0,0,0.06172839506172839,30.37037037037037,0)" xlink:href="#aO"/><use transform="matrix(0.06172839506172839,0,0,0.06172839506172839,42.71604938271605,0)" xlink:href="#aK"/><use transform="matrix(0.06172839506172839,0,0,0.06172839506172839,55.06172839506173,0)" xlink:href="#aP"/><use transform="matrix(0.06172839506172839,0,0,0.06172839506172839,59.93827160493827,0)" xlink:href="#aG"/><use transform="matrix(0.06172839506172839,0,0,0.06172839506172839,64.81481481481481,0)" xlink:href="#aQ"/><use transform="matrix(0.06172839506172839,0,0,0.06172839506172839,75.92592592592592,0)" xlink:href="#aK"/><use transform="matrix(0.06172839506172839,0,0,0.06172839506172839,88.27160493827161,0)" xlink:href="#aj"/><use transform="matrix(0.06172839506172839,0,0,0.06172839506172839,94.44444444444444,0)" xlink:href="#aG"/><use transform="matrix(0.06172839506172839,0,0,0.06172839506172839,99.32098765432099,0)" xlink:href="#al"/><use transform="matrix(0.06172839506172839,0,0,0.06172839506172839,111.66666666666667,0)" xlink:href="#aE"/><use transform="matrix(0.06172839506172839,0,0,0.06172839506172839,124.01234567901236,0)" xlink:href="#aI"/><use transform="matrix(0.06172839506172839,0,0,0.06172839506172839,135.06172839506172,0)" xlink:href="#al"/><use transform="matrix(0.06172839506172839,0,0,0.06172839506172839,147.4074074074074,0)" xlink:href="#aJ"/><use transform="matrix(0.06172839506172839,0,0,0.06172839506172839,159.75308641975306,0)" xlink:href="#aG"/><use transform="matrix(0.06172839506172839,0,0,0.06172839506172839,164.6296296296296,0)" xlink:href="#aF"/><use transform="matrix(0.06172839506172839,0,0,0.06172839506172839,175.7407407407407,0)" xlink:href="#aH"/><use transform="matrix(0.06172839506172839,0,0,0.06172839506172839,186.85185185185182,0)" xlink:href="#aI"/><use transform="matrix(0.06172839506172839,0,0,0.06172839506172839,197.90123456790118,0)" xlink:href="#aK"/><use transform="matrix(0.06172839506172839,0,0,0.06172839506172839,210.24691358024685,0)" xlink:href="#bl"/></g><path fill="#333" d="M30 0v-248h187v28H63v79h144v27H63v87h162V0H30" id="bm"/><path fill="#333" d="M179-190L93 31C79 59 56 82 12 73V49c39 6 53-20 64-50L1-190h34L92-34l54-156h33" id="bn"/><g id="F"><use transform="matrix(0.06172839506172839,0,0,0.06172839506172839,0,0)" xlink:href="#aN"/><use transform="matrix(0.06172839506172839,0,0,0.06172839506172839,14.382716049382715,0)" xlink:href="#aG"/><use transform="matrix(0.06172839506172839,0,0,0.06172839506172839,19.25925925925926,0)" xlink:href="#aH"/><use transform="matrix(0.06172839506172839,0,0,0.06172839506172839,30.37037037037037,0)" xlink:href="#aO"/><use transform="matrix(0.06172839506172839,0,0,0.06172839506172839,42.71604938271605,0)" xlink:href="#aK"/><use transform="matrix(0.06172839506172839,0,0,0.06172839506172839,55.06172839506173,0)" xlink:href="#aP"/><use transform="matrix(0.06172839506172839,0,0,0.06172839506172839,59.93827160493827,0)" xlink:href="#aG"/><use transform="matrix(0.06172839506172839,0,0,0.06172839506172839,64.81481481481481,0)" xlink:href="#aQ"/><use transform="matrix(0.06172839506172839,0,0,0.06172839506172839,75.92592592592592,0)" xlink:href="#aK"/><use transform="matrix(0.06172839506172839,0,0,0.06172839506172839,88.27160493827161,0)" xlink:href="#aj"/><use transform="matrix(0.06172839506172839,0,0,0.06172839506172839,94.44444444444444,0)" xlink:href="#aG"/><use transform="matrix(0.06172839506172839,0,0,0.06172839506172839,99.32098765432099,0)" xlink:href="#al"/><use transform="matrix(0.06172839506172839,0,0,0.06172839506172839,111.66666666666667,0)" xlink:href="#aE"/><use transform="matrix(0.06172839506172839,0,0,0.06172839506172839,124.01234567901236,0)" xlink:href="#aI"/><use transform="matrix(0.06172839506172839,0,0,0.06172839506172839,135.06172839506172,0)" xlink:href="#al"/><use transform="matrix(0.06172839506172839,0,0,0.06172839506172839,147.4074074074074,0)" xlink:href="#aJ"/><use transform="matrix(0.06172839506172839,0,0,0.06172839506172839,159.75308641975306,0)" xlink:href="#aG"/><use transform="matrix(0.06172839506172839,0,0,0.06172839506172839,164.6296296296296,0)" xlink:href="#aF"/><use transform="matrix(0.06172839506172839,0,0,0.06172839506172839,175.7407407407407,0)" xlink:href="#aH"/><use transform="matrix(0.06172839506172839,0,0,0.06172839506172839,186.85185185185182,0)" xlink:href="#aI"/><use transform="matrix(0.06172839506172839,0,0,0.06172839506172839,197.90123456790118,0)" xlink:href="#aK"/><use transform="matrix(0.06172839506172839,0,0,0.06172839506172839,210.24691358024685,0)" xlink:href="#bl"/><use transform="matrix(0.06172839506172839,0,0,0.06172839506172839,222.59259259259252,0)" xlink:href="#bm"/><use transform="matrix(0.06172839506172839,0,0,0.06172839506172839,237.40740740740733,0)" xlink:href="#aE"/><use transform="matrix(0.06172839506172839,0,0,0.06172839506172839,249.753086419753,0)" xlink:href="#aj"/><use transform="matrix(0.06172839506172839,0,0,0.06172839506172839,255.92592592592587,0)" xlink:href="#am"/><use transform="matrix(0.06172839506172839,0,0,0.06172839506172839,263.27160493827154,0)" xlink:href="#bn"/></g><path fill="#333" d="M540 22C268 22 57-229 57-506v-345c-8-277 211-528 483-528 249 0 439 198 473 423H885c-28-159-165-293-345-293-205 0-353 174-353 382v377c-5 208 148 382 353 382 180 0 318-134 345-293h128C979-176 789 22 540 22" id="bo"/><path fill="#333" d="M497-108c108 0 303-51 303-143v-220c-2 23-338 19-365 38-104 20-200 82-200 182 0 95 87 143 262 143zm28-871c161 0 405 100 405 248v579c0 27 16 41 48 44-1 21-3 64-5 129-72-4-122-33-151-87-82 59-188 88-318 88C233 22 97-70 97-253c0-145 124-253 248-288 70-20 368-9 427-58 17-9 27-25 29-46-1 7-1-13-1-60 0-84-168-147-260-147-166 0-269 58-309 174l-126-27c31-178 203-274 420-274" id="bp"/><path fill="#333" d="M51-478c0-256 221-509 478-501 201 6 353 126 426 274H803c-71-96-163-144-274-144-189 0-348 180-348 372 0 191 160 369 348 369 100 0 189-44 266-132h155C852-65 712 22 529 22 275 22 51-223 51-478" id="bq"/><path fill="#333" d="M543-849c-184 0-339 185-339 371V0H74v-1355h130v572c84-131 197-196 339-196 250 0 421 235 421 493V0H834v-478c4-195-107-371-291-371" id="br"/><path fill="#333" d="M52-478c0-256 228-501 485-501 264 0 489 248 480 516H180c0 180 174 355 357 355 148 0 301-110 347-219l130 23C955-140 749 17 537 22 280 28 52-222 52-478zm815-115c-38-129-172-257-330-256-158 0-295 130-340 256h670" id="bs"/><path fill="#333" d="M898-260C898-89 674 20 489 20 280 20 75-78 57-254l126-27c2 114 176 171 313 171 113 0 265-50 265-150 0-60-40-102-120-127-21-6-104-22-252-42-166-23-242-71-302-158-134-339 365-481 654-327 94 50 148 120 161 213l-126 27c-25-116-134-174-329-174-116 0-251 47-251 149 0 73 54 127 164 147 83 15 168 18 253 29 83 11 158 46 225 101 40 33 60 87 60 162" id="bt"/><g id="G"><use transform="matrix(0.010850694444444444,0,0,0.010850694444444444,0,0)" xlink:href="#bo"/><use transform="matrix(0.010850694444444444,0,0,0.010850694444444444,11.979166666666666,0)" xlink:href="#bp"/><use transform="matrix(0.010850694444444444,0,0,0.010850694444444444,23.546006944444443,0)" xlink:href="#bq"/><use transform="matrix(0.010850694444444444,0,0,0.010850694444444444,35.30815972222222,0)" xlink:href="#br"/><use transform="matrix(0.010850694444444444,0,0,0.010850694444444444,46.86414930555556,0)" xlink:href="#bs"/><use transform="matrix(0.010850694444444444,0,0,0.010850694444444444,59.07118055555555,0)" xlink:href="#bt"/></g><path fill="#333" d="M550-827c-191 0-346 159-346 349V0H72v-957h132v174c85-116 198-174 339-174h204v174c-69-29-134-44-197-44" id="bu"/><path fill="#333" d="M431-1222c-103-2-191 65-188 167v98h188v130H243V0H111v-827H33v-130h78c-7-146 8-241 94-317 61-53 135-81 226-81v133" id="bv"/><path fill="#333" d="M545-849c-196 0-341 171-341 371V0H74v-957h130v174c77-131 190-196 341-196 285 0 449 200 449 493V0H862v-478c2-219-106-371-317-371" id="bw"/><g id="H"><use transform="matrix(0.010850694444444444,0,0,0.010850694444444444,0,0)" xlink:href="#bu"/><use transform="matrix(0.010850694444444444,0,0,0.010850694444444444,8.430989583333334,0)" xlink:href="#bs"/><use transform="matrix(0.010850694444444444,0,0,0.010850694444444444,20.638020833333336,0)" xlink:href="#bv"/><use transform="matrix(0.010850694444444444,0,0,0.010850694444444444,25.900607638888893,0)" xlink:href="#bs"/><use transform="matrix(0.010850694444444444,0,0,0.010850694444444444,38.10763888888889,0)" xlink:href="#bu"/><use transform="matrix(0.010850694444444444,0,0,0.010850694444444444,46.53862847222223,0)" xlink:href="#bs"/><use transform="matrix(0.010850694444444444,0,0,0.010850694444444444,58.74565972222223,0)" xlink:href="#bw"/><use transform="matrix(0.010850694444444444,0,0,0.010850694444444444,70.86588541666667,0)" xlink:href="#bq"/><use transform="matrix(0.010850694444444444,0,0,0.010850694444444444,82.62803819444444,0)" xlink:href="#bs"/></g><path fill="#333" d="M406 0C279 4 176-105 176-232v-595H26v-130c75 0 120-17 137-51 9-17 13-69 13-155h130v206h241v130H306v595c0 70 49 105 146 105 18 0 78-3 95-3V0H406" id="bx"/><g id="I"><use transform="matrix(0.010850694444444444,0,0,0.010850694444444444,0,0)" xlink:href="#bo"/><use transform="matrix(0.010850694444444444,0,0,0.010850694444444444,11.979166666666666,0)" xlink:href="#bu"/><use transform="matrix(0.010850694444444444,0,0,0.010850694444444444,20.41015625,0)" xlink:href="#bs"/><use transform="matrix(0.010850694444444444,0,0,0.010850694444444444,32.6171875,0)" xlink:href="#bp"/><use transform="matrix(0.010850694444444444,0,0,0.010850694444444444,43.66319444444444,0)" xlink:href="#bx"/><use transform="matrix(0.010850694444444444,0,0,0.010850694444444444,50.30381944444444,0)" xlink:href="#bs"/><use transform="matrix(0.010850694444444444,0,0,0.010850694444444444,62.51085069444444,0)" xlink:href="#bt"/></g><path fill="#333" d="M227-1355L895-225v-1130h132V0H873L204-1135V0H72v-1355h155" id="by"/><path fill="#333" d="M881-477c0-189-160-372-351-372-189 0-348 181-348 372s160 369 348 369 351-180 351-369zm-829-1c0-256 220-501 478-501 257 0 481 246 481 502S785 22 530 22C276 22 52-223 52-478" id="bz"/><path fill="#333" d="M240-1205c-40 0-79-36-79-76s39-76 79-76c41 0 78 35 78 76s-37 76-78 76zM47-957h257V0H174v-827H47v-130" id="bA"/><g id="J"><use transform="matrix(0.010850694444444444,0,0,0.010850694444444444,0,0)" xlink:href="#by"/><use transform="matrix(0.010850694444444444,0,0,0.010850694444444444,12.651909722222221,0)" xlink:href="#bz"/><use transform="matrix(0.010850694444444444,0,0,0.010850694444444444,24.85894097222222,0)" xlink:href="#bx"/><use transform="matrix(0.010850694444444444,0,0,0.010850694444444444,31.49956597222222,0)" xlink:href="#bA"/><use transform="matrix(0.010850694444444444,0,0,0.010850694444444444,35.83984375,0)" xlink:href="#bv"/><use transform="matrix(0.010850694444444444,0,0,0.010850694444444444,41.10243055555556,0)" xlink:href="#bA"/><use transform="matrix(0.010850694444444444,0,0,0.010850694444444444,45.44270833333333,0)" xlink:href="#bs"/><use transform="matrix(0.010850694444444444,0,0,0.010850694444444444,57.64973958333333,0)" xlink:href="#bt"/></g><path fill="#333" d="M86-1355h132V0H86v-1355" id="bB"/><g id="K"><use transform="matrix(0.010850694444444444,0,0,0.010850694444444444,0,0)" xlink:href="#bo"/><use transform="matrix(0.010850694444444444,0,0,0.010850694444444444,11.979166666666666,0)" xlink:href="#bp"/><use transform="matrix(0.010850694444444444,0,0,0.010850694444444444,23.546006944444443,0)" xlink:href="#bB"/><use transform="matrix(0.010850694444444444,0,0,0.010850694444444444,27.39800347222222,0)" xlink:href="#bB"/><use transform="matrix(0.010850694444444444,0,0,0.010850694444444444,31.25,0)" xlink:href="#bt"/></g><path fill="#333" d="M892-988c1-180-155-261-350-261-239 0-359 83-359 250 0 109 72 186 218 225 134 36 273 57 404 101 148 49 217 165 217 318 0 218-259 377-488 377C285 22 54-135 53-369h130c6 176 157 261 349 261 178 0 360-88 360-250 0-109-72-188-217-228-134-37-272-59-404-103C123-738 53-851 53-998c0-227 241-381 478-381 258 0 497 146 491 391H892" id="bC"/><path fill="#333" d="M483-108c191 0 291-169 291-370v-479h130V0H774v-137C701-31 604 22 483 22 219 22 67-183 67-456v-501h130v501c-4 182 112 348 286 348" id="bD"/><path fill="#333" d="M922-478c0-187-188-371-375-371S209-669 209-478c0 190 155 370 343 370 187 0 370-183 370-370zm130 0c0 255-245 500-500 500-147 0-263-65-348-196V0H72v-1355h132v572c82-131 196-196 343-196 256 0 505 245 505 501" id="bE"/><g id="L"><use transform="matrix(0.010850694444444444,0,0,0.010850694444444444,0,0)" xlink:href="#bC"/><use transform="matrix(0.010850694444444444,0,0,0.010850694444444444,12.20703125,0)" xlink:href="#bD"/><use transform="matrix(0.010850694444444444,0,0,0.010850694444444444,23.49175347222222,0)" xlink:href="#bE"/><use transform="matrix(0.010850694444444444,0,0,0.010850694444444444,35.83984375,0)" xlink:href="#bt"/><use transform="matrix(0.010850694444444444,0,0,0.010850694444444444,46.72309027777778,0)" xlink:href="#bq"/><use transform="matrix(0.010850694444444444,0,0,0.010850694444444444,58.48524305555555,0)" xlink:href="#bu"/><use transform="matrix(0.010850694444444444,0,0,0.010850694444444444,67.78428819444444,0)" xlink:href="#bA"/><use transform="matrix(0.010850694444444444,0,0,0.010850694444444444,72.12456597222221,0)" xlink:href="#bE"/><use transform="matrix(0.010850694444444444,0,0,0.010850694444444444,84.47265624999999,0)" xlink:href="#bs"/><use transform="matrix(0.010850694444444444,0,0,0.010850694444444444,96.67968749999997,0)" xlink:href="#bu"/><use transform="matrix(0.010850694444444444,0,0,0.010850694444444444,105.97873263888887,0)" xlink:href="#bt"/></g><g id="M"><use transform="matrix(0.06172839506172839,0,0,0.06172839506172839,0,0)" xlink:href="#aL"/><use transform="matrix(0.06172839506172839,0,0,0.06172839506172839,18.456790123456788,0)" xlink:href="#ai"/><use transform="matrix(0.06172839506172839,0,0,0.06172839506172839,30.80246913580247,0)" xlink:href="#aH"/><use transform="matrix(0.06172839506172839,0,0,0.06172839506172839,41.91358024691358,0)" xlink:href="#aH"/><use transform="matrix(0.06172839506172839,0,0,0.06172839506172839,53.0246913580247,0)" xlink:href="#aK"/><use transform="matrix(0.06172839506172839,0,0,0.06172839506172839,65.37037037037038,0)" xlink:href="#aM"/><use transform="matrix(0.06172839506172839,0,0,0.06172839506172839,77.71604938271606,0)" xlink:href="#ai"/><use transform="matrix(0.06172839506172839,0,0,0.06172839506172839,90.06172839506175,0)" xlink:href="#aN"/><use transform="matrix(0.06172839506172839,0,0,0.06172839506172839,104.44444444444446,0)" xlink:href="#aG"/><use transform="matrix(0.06172839506172839,0,0,0.06172839506172839,109.320987654321,0)" xlink:href="#aH"/><use transform="matrix(0.06172839506172839,0,0,0.06172839506172839,120.43209876543212,0)" xlink:href="#aO"/><use transform="matrix(0.06172839506172839,0,0,0.06172839506172839,132.7777777777778,0)" xlink:href="#aK"/><use transform="matrix(0.06172839506172839,0,0,0.06172839506172839,145.12345679012347,0)" xlink:href="#aP"/><use transform="matrix(0.06172839506172839,0,0,0.06172839506172839,150,0)" xlink:href="#aG"/><use transform="matrix(0.06172839506172839,0,0,0.06172839506172839,154.87654320987653,0)" xlink:href="#aQ"/><use transform="matrix(0.06172839506172839,0,0,0.06172839506172839,165.98765432098764,0)" xlink:href="#aK"/><use transform="matrix(0.06172839506172839,0,0,0.06172839506172839,178.33333333333331,0)" xlink:href="#aj"/><use transform="matrix(0.06172839506172839,0,0,0.06172839506172839,184.50617283950615,0)" xlink:href="#aG"/><use transform="matrix(0.06172839506172839,0,0,0.06172839506172839,189.38271604938268,0)" xlink:href="#al"/><use transform="matrix(0.06172839506172839,0,0,0.06172839506172839,201.72839506172835,0)" xlink:href="#aE"/><use transform="matrix(0.06172839506172839,0,0,0.06172839506172839,214.07407407407402,0)" xlink:href="#aA"/><use transform="matrix(0.06172839506172839,0,0,0.06172839506172839,230.06172839506166,0)" xlink:href="#ai"/><use transform="matrix(0.06172839506172839,0,0,0.06172839506172839,242.40740740740733,0)" xlink:href="#aM"/><use transform="matrix(0.06172839506172839,0,0,0.06172839506172839,254.753086419753,0)" xlink:href="#aG"/><use transform="matrix(0.06172839506172839,0,0,0.06172839506172839,259.62962962962956,0)" xlink:href="#aH"/><use transform="matrix(0.06172839506172839,0,0,0.06172839506172839,270.74074074074065,0)" xlink:href="#aj"/><use transform="matrix(0.06172839506172839,0,0,0.06172839506172839,276.9135802469135,0)" xlink:href="#am"/><use transform="matrix(0.06172839506172839,0,0,0.06172839506172839,284.2592592592592,0)" xlink:href="#bn"/></g><g id="N"><use transform="matrix(0.010850694444444444,0,0,0.010850694444444444,0,0)" xlink:href="#bC"/><use transform="matrix(0.010850694444444444,0,0,0.010850694444444444,12.20703125,0)" xlink:href="#bD"/><use transform="matrix(0.010850694444444444,0,0,0.010850694444444444,23.49175347222222,0)" xlink:href="#bE"/><use transform="matrix(0.010850694444444444,0,0,0.010850694444444444,35.83984375,0)" xlink:href="#bt"/><use transform="matrix(0.010850694444444444,0,0,0.010850694444444444,46.72309027777778,0)" xlink:href="#bq"/><use transform="matrix(0.010850694444444444,0,0,0.010850694444444444,58.48524305555555,0)" xlink:href="#bu"/><use transform="matrix(0.010850694444444444,0,0,0.010850694444444444,67.78428819444444,0)" xlink:href="#bA"/><use transform="matrix(0.010850694444444444,0,0,0.010850694444444444,72.12456597222221,0)" xlink:href="#bE"/><use transform="matrix(0.010850694444444444,0,0,0.010850694444444444,84.47265624999999,0)" xlink:href="#bs"/><use transform="matrix(0.010850694444444444,0,0,0.010850694444444444,96.67968749999997,0)" xlink:href="#bt"/></g><g id="O"><use transform="matrix(0.010850694444444444,0,0,0.010850694444444444,0,0)" xlink:href="#bx"/><use transform="matrix(0.010850694444444444,0,0,0.010850694444444444,6.640625,0)" xlink:href="#bz"/></g><path fill="#333" d="M455-849c-173 0-251 180-251 371V0H74v-957h130v106c60-85 144-128 251-128 146 0 245 69 296 208 37-139 135-208 295-208 233 0 349 167 349 501V0h-130v-478c0-247-73-371-219-371-169 0-241 180-241 371V0H675l-1-478c0-247-73-371-219-371" id="bF"/><path fill="#333" d="M177-478c0 192 146 370 333 370s324-179 324-370c0-193-136-371-324-371-187 0-333 180-333 371zm332 742c191 3 334-157 330-347v-91C756-43 647 22 510 22 246 22 47-209 47-478c0-259 208-501 463-501 140 0 250 67 329 201v-179h130v888c6 260-201 463-461 463C272 394 95 221 61 14L188-7c30 151 149 268 321 271" id="bG"/><g id="P"><use transform="matrix(0.010850694444444444,0,0,0.010850694444444444,0,0)" xlink:href="#bF"/><use transform="matrix(0.010850694444444444,0,0,0.010850694444444444,16.786024305555554,0)" xlink:href="#bs"/><use transform="matrix(0.010850694444444444,0,0,0.010850694444444444,28.993055555555554,0)" xlink:href="#bt"/><use transform="matrix(0.010850694444444444,0,0,0.010850694444444444,39.87630208333333,0)" xlink:href="#bt"/><use transform="matrix(0.010850694444444444,0,0,0.010850694444444444,50.75954861111111,0)" xlink:href="#bp"/><use transform="matrix(0.010850694444444444,0,0,0.010850694444444444,62.326388888888886,0)" xlink:href="#bG"/><use transform="matrix(0.010850694444444444,0,0,0.010850694444444444,74.26215277777777,0)" xlink:href="#bs"/><use transform="matrix(0.010850694444444444,0,0,0.010850694444444444,86.46918402777777,0)" xlink:href="#bt"/></g><path fill="#333" d="M33 0v-248h34V0H33" id="bH"/><path fill="#333" d="M63-220v92h138v28H63V0H30v-248h175v28H63" id="bI"/><g id="Q"><use transform="matrix(0.06172839506172839,0,0,0.06172839506172839,0,0)" xlink:href="#bH"/><use transform="matrix(0.06172839506172839,0,0,0.06172839506172839,6.172839506172839,0)" xlink:href="#aN"/><use transform="matrix(0.06172839506172839,0,0,0.06172839506172839,20.555555555555554,0)" xlink:href="#aG"/><use transform="matrix(0.06172839506172839,0,0,0.06172839506172839,25.432098765432094,0)" xlink:href="#aH"/><use transform="matrix(0.06172839506172839,0,0,0.06172839506172839,36.5432098765432,0)" xlink:href="#aO"/><use transform="matrix(0.06172839506172839,0,0,0.06172839506172839,48.88888888888888,0)" xlink:href="#aK"/><use transform="matrix(0.06172839506172839,0,0,0.06172839506172839,61.234567901234556,0)" xlink:href="#aP"/><use transform="matrix(0.06172839506172839,0,0,0.06172839506172839,66.1111111111111,0)" xlink:href="#bI"/><use transform="matrix(0.06172839506172839,0,0,0.06172839506172839,79.62962962962962,0)" xlink:href="#aK"/><use transform="matrix(0.06172839506172839,0,0,0.06172839506172839,91.9753086419753,0)" xlink:href="#aF"/><use transform="matrix(0.06172839506172839,0,0,0.06172839506172839,103.08641975308642,0)" xlink:href="#aj"/><use transform="matrix(0.06172839506172839,0,0,0.06172839506172839,109.25925925925925,0)" xlink:href="#al"/><use transform="matrix(0.06172839506172839,0,0,0.06172839506172839,121.60493827160494,0)" xlink:href="#am"/><use transform="matrix(0.06172839506172839,0,0,0.06172839506172839,128.9506172839506,0)" xlink:href="#bn"/></g><path fill="#333" d="M865-1355v130H204v424h531v134H204V0H74v-1355h791" id="bJ"/><path fill="#333" d="M-2-478c0-256 249-501 505-501 147 0 261 65 343 196v-572h132V0H846v-174C761-43 645 22 498 22 243 22-2-223-2-478zm843 0c0-191-151-371-338-371S128-665 128-478s183 370 370 370c188 0 343-180 343-370" id="bK"/><g id="R"><use transform="matrix(0.010850694444444444,0,0,0.010850694444444444,0,0)" xlink:href="#bJ"/><use transform="matrix(0.010850694444444444,0,0,0.010850694444444444,10.015190972222221,0)" xlink:href="#bA"/><use transform="matrix(0.010850694444444444,0,0,0.010850694444444444,14.35546875,0)" xlink:href="#bw"/><use transform="matrix(0.010850694444444444,0,0,0.010850694444444444,26.475694444444443,0)" xlink:href="#bK"/><use transform="matrix(0.010850694444444444,0,0,0.010850694444444444,38.55251736111111,0)" xlink:href="#bt"/></g><path fill="#333" d="M262-377c0 145 105 274 248 272 229-3 373-133 416-329l89-403c-203-10-373 23-516 98-158 83-237 204-237 362zM522 23c-224 0-389-175-389-398 0-200 92-354 276-461 152-89 335-134 550-134 140 0 212 22 197 90L984-81c-46 251-276 483-562 482-197-1-347-116-390-277 38-21 77-44 117-69 36 145 126 217 271 217 189 0 415-182 432-353C757-12 647 23 522 23" id="bL"/><g id="S"><use transform="matrix(0.010850694444444444,0,0,0.010850694444444444,0,0)" xlink:href="#aR"/><use transform="matrix(0.010850694444444444,0,0,0.010850694444444444,6.684027777777778,0)" xlink:href="#bb"/><use transform="matrix(0.010850694444444444,0,0,0.010850694444444444,15.79861111111111,0)" xlink:href="#aW"/><use transform="matrix(0.010850694444444444,0,0,0.010850694444444444,25.99826388888889,0)" xlink:href="#bL"/><use transform="matrix(0.010850694444444444,0,0,0.010850694444444444,38.932291666666664,0)" xlink:href="#aT"/><use transform="matrix(0.010850694444444444,0,0,0.010850694444444444,43.95616319444444,0)" xlink:href="#aU"/><use transform="matrix(0.010850694444444444,0,0,0.010850694444444444,55.01302083333333,0)" xlink:href="#aV"/><use transform="matrix(0.010850694444444444,0,0,0.010850694444444444,61.92491319444444,0)" xlink:href="#aW"/><use transform="matrix(0.010850694444444444,0,0,0.010850694444444444,73.55685763888889,0)" xlink:href="#bb"/><use transform="matrix(0.010850694444444444,0,0,0.010850694444444444,82.67144097222221,0)" xlink:href="#aW"/><use transform="matrix(0.010850694444444444,0,0,0.010850694444444444,94.30338541666666,0)" xlink:href="#aY"/></g><path fill="#333" d="M154-984l256 823 346-478c53-73 79-133 79-182 0-36-16-60-48-72l48-120c163 55 160 264 61 396C762-437 603-205 443 14 409 61 342 55 325 0L34-936" id="bM"/><path fill="#333" d="M272-123c68 0 323 59 405 59 70 0 171-22 302-67 13 44 25 86 37 125-220 62-295 96-485 56C387 20 316 0 110 0 45 0 27-63 57-107c269-235 551-482 821-718H277l5-129h776c49 2 77 76 34 114" id="bN"/><g id="T"><use transform="matrix(0.010850694444444444,0,0,0.010850694444444444,0,0)" xlink:href="#bM"/><use transform="matrix(0.010850694444444444,0,0,0.010850694444444444,10.796440972222221,0)" xlink:href="#aT"/><use transform="matrix(0.010850694444444444,0,0,0.010850694444444444,15.8203125,0)" xlink:href="#aU"/><use transform="matrix(0.010850694444444444,0,0,0.010850694444444444,26.87717013888889,0)" xlink:href="#be"/><use transform="matrix(0.010850694444444444,0,0,0.010850694444444444,39.16015625,0)" xlink:href="#bf"/><use transform="matrix(0.010850694444444444,0,0,0.010850694444444444,51.5625,0)" xlink:href="#aS"/><use transform="matrix(0.010850694444444444,0,0,0.010850694444444444,56.08723958333333,0)" xlink:href="#aT"/><use transform="matrix(0.010850694444444444,0,0,0.010850694444444444,61.11111111111112,0)" xlink:href="#bN"/><use transform="matrix(0.010850694444444444,0,0,0.010850694444444444,73.4375,0)" xlink:href="#aW"/><use transform="matrix(0.010850694444444444,0,0,0.010850694444444444,85.06944444444444,0)" xlink:href="#bb"/></g><g id="U"><use transform="matrix(0.010850694444444444,0,0,0.010850694444444444,0,0)" xlink:href="#bf"/><use transform="matrix(0.010850694444444444,0,0,0.010850694444444444,12.40234375,0)" xlink:href="#aV"/></g><g id="V"><use transform="matrix(0.010850694444444444,0,0,0.010850694444444444,0,0)" xlink:href="#aU"/><use transform="matrix(0.010850694444444444,0,0,0.010850694444444444,11.05685763888889,0)" xlink:href="#aV"/><use transform="matrix(0.010850694444444444,0,0,0.010850694444444444,17.96875,0)" xlink:href="#bf"/><use transform="matrix(0.010850694444444444,0,0,0.010850694444444444,30.37109375,0)" xlink:href="#bb"/><use transform="matrix(0.010850694444444444,0,0,0.010850694444444444,40.353732638888886,0)" xlink:href="#aV"/><use transform="matrix(0.010850694444444444,0,0,0.010850694444444444,47.265625,0)" xlink:href="#be"/><use transform="matrix(0.010850694444444444,0,0,0.010850694444444444,59.54861111111112,0)" xlink:href="#bc"/><use transform="matrix(0.010850694444444444,0,0,0.010850694444444444,72.09201388888889,0)" xlink:href="#bg"/></g><path fill="#333" d="M966-625c20-2 56 36 56 56V0H893v-141C803-32 685 22 540 22 268 22 57-229 57-506v-345c-8-277 211-528 483-528s491 251 483 528H893c5-220-139-398-353-398-205 0-353 174-353 382v377c-5 208 148 382 353 382 208 0 359-175 354-388H606c-1-25-2-91 0-129h360" id="bO"/><g id="W"><use transform="matrix(0.010850694444444444,0,0,0.010850694444444444,0,0)" xlink:href="#bO"/><use transform="matrix(0.010850694444444444,0,0,0.010850694444444444,12.358940972222221,0)" xlink:href="#bs"/><use transform="matrix(0.010850694444444444,0,0,0.010850694444444444,24.56597222222222,0)" xlink:href="#bx"/></g><g id="X"><use transform="matrix(0.010850694444444444,0,0,0.010850694444444444,0,0)" xlink:href="#bz"/><use transform="matrix(0.010850694444444444,0,0,0.010850694444444444,12.20703125,0)" xlink:href="#bu"/></g><g id="Y"><use transform="matrix(0.010850694444444444,0,0,0.010850694444444444,0,0)" xlink:href="#bo"/><use transform="matrix(0.010850694444444444,0,0,0.010850694444444444,11.979166666666666,0)" xlink:href="#bu"/><use transform="matrix(0.010850694444444444,0,0,0.010850694444444444,20.41015625,0)" xlink:href="#bs"/><use transform="matrix(0.010850694444444444,0,0,0.010850694444444444,32.6171875,0)" xlink:href="#bp"/><use transform="matrix(0.010850694444444444,0,0,0.010850694444444444,43.66319444444444,0)" xlink:href="#bx"/><use transform="matrix(0.010850694444444444,0,0,0.010850694444444444,50.30381944444444,0)" xlink:href="#bs"/></g><g id="Z"><use transform="matrix(0.06172839506172839,0,0,0.06172839506172839,0,0)" xlink:href="#bH"/><use transform="matrix(0.06172839506172839,0,0,0.06172839506172839,6.172839506172839,0)" xlink:href="#aN"/><use transform="matrix(0.06172839506172839,0,0,0.06172839506172839,20.555555555555554,0)" xlink:href="#aG"/><use transform="matrix(0.06172839506172839,0,0,0.06172839506172839,25.432098765432094,0)" xlink:href="#aH"/><use transform="matrix(0.06172839506172839,0,0,0.06172839506172839,36.5432098765432,0)" xlink:href="#aO"/><use transform="matrix(0.06172839506172839,0,0,0.06172839506172839,48.88888888888888,0)" xlink:href="#aK"/><use transform="matrix(0.06172839506172839,0,0,0.06172839506172839,61.234567901234556,0)" xlink:href="#aP"/></g><path fill="#333" d="M204-1131V0H72v-1355h167l417 834 417-834h172V0h-133v-1131L732-373H584" id="bP"/><path fill="#333" d="M253 269c88 1 142-24 163-75L519-65 33-957h148l400 735 292-735h140L555 194c-58 142-154 210-302 205V269" id="bQ"/><g id="aa"><use transform="matrix(0.010850694444444444,0,0,0.010850694444444444,0,0)" xlink:href="#bP"/><use transform="matrix(0.010850694444444444,0,0,0.010850694444444444,15.13671875,0)" xlink:href="#bp"/><use transform="matrix(0.010850694444444444,0,0,0.010850694444444444,26.009114583333332,0)" xlink:href="#bQ"/></g><g id="ab"><use transform="matrix(0.010850694444444444,0,0,0.010850694444444444,0,0)" xlink:href="#bo"/><use transform="matrix(0.010850694444444444,0,0,0.010850694444444444,11.979166666666666,0)" xlink:href="#bu"/><use transform="matrix(0.010850694444444444,0,0,0.010850694444444444,20.41015625,0)" xlink:href="#bs"/><use transform="matrix(0.010850694444444444,0,0,0.010850694444444444,32.6171875,0)" xlink:href="#bp"/><use transform="matrix(0.010850694444444444,0,0,0.010850694444444444,43.66319444444444,0)" xlink:href="#bx"/><use transform="matrix(0.010850694444444444,0,0,0.010850694444444444,50.30381944444444,0)" xlink:href="#bs"/></g><path fill="#333" d="M160-131c35 5 61 23 61 61C221 17 115-2 30 0v-248c76 3 177-17 177 60 0 33-19 50-47 57zm-97-11c50-1 110 9 110-42 0-47-63-36-110-37v79zm0 115c55-2 124 14 124-45 0-56-70-42-124-44v89" id="bR"/><path fill="#333" d="M30-248c118-7 216 8 213 122C240-48 200 0 122 0H30v-248zM63-27c89 8 146-16 146-99s-60-101-146-95v194" id="bS"/><g id="ac"><use transform="matrix(0.06172839506172839,0,0,0.06172839506172839,0,0)" xlink:href="#bR"/><use transform="matrix(0.06172839506172839,0,0,0.06172839506172839,14.814814814814813,0)" xlink:href="#aK"/><use transform="matrix(0.06172839506172839,0,0,0.06172839506172839,27.160493827160494,0)" xlink:href="#aH"/><use transform="matrix(0.06172839506172839,0,0,0.06172839506172839,38.27160493827161,0)" xlink:href="#aG"/><use transform="matrix(0.06172839506172839,0,0,0.06172839506172839,43.14814814814815,0)" xlink:href="#aF"/><use transform="matrix(0.06172839506172839,0,0,0.06172839506172839,54.25925925925927,0)" xlink:href="#bS"/><use transform="matrix(0.06172839506172839,0,0,0.06172839506172839,70.24691358024693,0)" xlink:href="#am"/><use transform="matrix(0.06172839506172839,0,0,0.06172839506172839,77.59259259259261,0)" xlink:href="#aK"/><use transform="matrix(0.06172839506172839,0,0,0.06172839506172839,89.9382716049383,0)" xlink:href="#ak"/><use transform="matrix(0.06172839506172839,0,0,0.06172839506172839,105.92592592592595,0)" xlink:href="#aG"/><use transform="matrix(0.06172839506172839,0,0,0.06172839506172839,110.8024691358025,0)" xlink:href="#aE"/><use transform="matrix(0.06172839506172839,0,0,0.06172839506172839,123.14814814814818,0)" xlink:href="#aM"/></g><path fill="#333" d="M197 0v-115H63V0H30v-248h33v105h134v-105h34V0h-34" id="bT"/><path fill="#333" d="M85-194c31 0 48 13 60 33l-1-100h32l1 261h-30c-2-10 0-23-3-31C134-8 116 4 85 4 32 4 16-35 15-94c0-66 23-100 70-100zm9 24c-40 0-46 34-46 75 0 40 6 74 45 74 42 0 51-32 51-76 0-42-9-74-50-73" id="bU"/><path fill="#333" d="M266 0h-40l-56-210L115 0H75L2-248h35L96-30l15-64 43-154h32l59 218 59-218h35" id="bV"/><g id="ad"><use transform="matrix(0.06172839506172839,0,0,0.06172839506172839,0,0)" xlink:href="#bT"/><use transform="matrix(0.06172839506172839,0,0,0.06172839506172839,15.987654320987653,0)" xlink:href="#aO"/><use transform="matrix(0.06172839506172839,0,0,0.06172839506172839,28.333333333333332,0)" xlink:href="#bU"/><use transform="matrix(0.06172839506172839,0,0,0.06172839506172839,40.67901234567901,0)" xlink:href="#bV"/><use transform="matrix(0.06172839506172839,0,0,0.06172839506172839,61.60493827160494,0)" xlink:href="#aG"/><use transform="matrix(0.06172839506172839,0,0,0.06172839506172839,66.48148148148148,0)" xlink:href="#aE"/><use transform="matrix(0.06172839506172839,0,0,0.06172839506172839,78.82716049382717,0)" xlink:href="#bU"/><use transform="matrix(0.06172839506172839,0,0,0.06172839506172839,91.17283950617285,0)" xlink:href="#al"/><use transform="matrix(0.06172839506172839,0,0,0.06172839506172839,103.51851851851853,0)" xlink:href="#ak"/></g><path fill="#333" d="M141 0L90-78 38 0H4l68-98-65-92h35l48 74 47-74h35l-64 92 68 98h-35" id="bW"/><path fill="#333" d="M101-251c82-7 93 87 43 132L82-64C71-53 59-42 53-27h129V0H18c2-99 128-94 128-182 0-28-16-43-45-43s-46 15-49 41l-32-3c6-41 34-60 81-64" id="bX"/><g id="ae"><use transform="matrix(0.06172839506172839,0,0,0.06172839506172839,0,0)" xlink:href="#aI"/><use transform="matrix(0.06172839506172839,0,0,0.06172839506172839,11.049382716049381,0)" xlink:href="#ai"/><use transform="matrix(0.06172839506172839,0,0,0.06172839506172839,23.39506172839506,0)" xlink:href="#bW"/><use transform="matrix(0.06172839506172839,0,0,0.06172839506172839,34.50617283950617,0)" xlink:href="#aj"/><use transform="matrix(0.06172839506172839,0,0,0.06172839506172839,40.67901234567901,0)" xlink:href="#aO"/><use transform="matrix(0.06172839506172839,0,0,0.06172839506172839,53.02469135802469,0)" xlink:href="#am"/><use transform="matrix(0.06172839506172839,0,0,0.06172839506172839,60.37037037037037,0)" xlink:href="#ai"/><use transform="matrix(0.06172839506172839,0,0,0.06172839506172839,72.71604938271605,0)" xlink:href="#bX"/><use transform="matrix(0.06172839506172839,0,0,0.06172839506172839,85.06172839506173,0)" xlink:href="#bS"/></g><path fill="#333" d="M695-649l-152-510-156 510h308zM888 0L732-517H348L192 0H57l406-1355h160L1029 0H888" id="bY"/><g id="af"><use transform="matrix(0.010850694444444444,0,0,0.010850694444444444,0,0)" xlink:href="#bY"/><use transform="matrix(0.010850694444444444,0,0,0.010850694444444444,12.47829861111111,0)" xlink:href="#bK"/><use transform="matrix(0.010850694444444444,0,0,0.010850694444444444,24.55512152777778,0)" xlink:href="#bK"/><use transform="matrix(0.010850694444444444,0,0,0.010850694444444444,36.63194444444444,0)" xlink:href="#bt"/></g><g id="ag"><use transform="matrix(0.010850694444444444,0,0,0.010850694444444444,0,0)" xlink:href="#bF"/><use transform="matrix(0.010850694444444444,0,0,0.010850694444444444,16.786024305555554,0)" xlink:href="#bs"/><use transform="matrix(0.010850694444444444,0,0,0.010850694444444444,28.993055555555554,0)" xlink:href="#bt"/><use transform="matrix(0.010850694444444444,0,0,0.010850694444444444,39.87630208333333,0)" xlink:href="#bt"/><use transform="matrix(0.010850694444444444,0,0,0.010850694444444444,50.75954861111111,0)" xlink:href="#bp"/><use transform="matrix(0.010850694444444444,0,0,0.010850694444444444,62.326388888888886,0)" xlink:href="#bG"/><use transform="matrix(0.010850694444444444,0,0,0.010850694444444444,74.26215277777777,0)" xlink:href="#bs"/></g></defs></g></svg>